<?xml version="1.0" encoding="UTF-8"?><svg id="Layer_1" xmlns="http://www.w3.org/2000/svg" viewBox="0 0 700.54 733.84"><defs><style>.cls-1{fill:#d4e6aa;stroke-width:4px;}.cls-1,.cls-2,.cls-3,.cls-4,.cls-5{stroke:#303b19;}.cls-1,.cls-3,.cls-4,.cls-5{stroke-miterlimit:10;}.cls-2{stroke-linejoin:bevel;stroke-width:3.8px;}.cls-2,.cls-3,.cls-4,.cls-5{fill:none;}.cls-3{stroke-width:3.8px;}.cls-4{stroke-width:3.98px;}.cls-5{stroke-width:2.12px;}.cls-6{fill:#bdce38;}.cls-6,.cls-7,.cls-8{stroke-width:0px;}.cls-7{fill:#303b19;}.cls-8{fill:#fff;}</style></defs><path class="cls-7" d="m209.43,389.67s35.12-19.24,41.76-12.82l19.33-118.43-73.78-15.43,12.68,146.68Z"/><path class="cls-7" d="m524.51,277.85c-6.33,28.75-25.52,48.36-42.88,43.79s-26.29-31.58-19.97-60.34c6.33-28.75,9.92-60.01,27.27-55.43s41.9,43.23,35.57,71.99Z"/><polygon class="cls-7" points="202.23 369.24 196.75 242.99 270.53 320.66 233.64 376.85 202.23 369.24"/><path class="cls-1" d="m516.02,372.13c-21.39-107.98-51.26-158.75-145.97-158.75s-119.25,59.58-123.96,154.87c-4.75-2.08-28.91-16.06-34.27-16.06-24.38,0-33.87,22.17-33.87,51.17s7.66,37.53,33.87,53.83c10.21,6.35,21.2.54,29.66-10.47,25.45,59.09,80.1,92.59,135.05,96.54,104.03,7.47,160.11-67.04,139.49-171.12Z"/><path class="cls-7" d="m373.76,362.35c0,12.95-15.02,23.44-33.55,23.44s-33.55-10.5-33.55-23.44,15.58-24.16,34.11-24.16,32.99,11.21,32.99,24.16Z"/><path class="cls-8" d="m373.76,362.35c.61,13.98-15.02,23.44-33.55,23.44s-33.55-8.01-33.55-22.25c0-10.85,15.58-17.62,34.11-17.62s32.51,5.6,32.99,16.43Z"/><path class="cls-4" d="m392.59,385.23s63.7,27.66,8.32,55.33"/><path class="cls-7" d="m381.02,320.74c0,8.47-18.27-7.14-40.8-7.14s-40.8,15.61-40.8,7.14,18.27-28.81,40.8-28.81,40.8,20.34,40.8,28.81Z"/><path class="cls-7" d="m495.07,323.07c0,8.47-16.7-7.14-37.3-7.14s-37.3,15.61-37.3,7.14,16.7-28.81,37.3-28.81,37.3,20.34,37.3,28.81Z"/><circle class="cls-6" cx="315.82" cy="440.56" r="37.95"/><ellipse class="cls-6" cx="474.65" cy="435.17" rx="26.98" ry="29.52"/><path class="cls-5" d="m224.57,370.83s-48.65,96.76-2.38,58.63c46.27-38.13-17.59-11.42-17.59-11.42"/><path class="cls-7" d="m252.83,223.51c18.96,21.45,23.14,48.72,9.35,60.91-13.79,12.19-40.34,4.67-59.29-16.78-18.96-21.45-27-48.4-13.21-60.59,13.79-12.19,44.19-4.99,63.15,16.46Z"/><path class="cls-7" d="m247.56,295.35c-21.45,18.96-48.72,23.14-60.91,9.35-12.19-13.79-4.67-40.34,16.78-59.29,21.45-18.96,48.4-27,60.59-13.21,12.19,13.79,4.99,44.19-16.46,63.15Z"/><path class="cls-7" d="m295.73,208.74c10.42,26.67,4.96,53.71-12.18,60.41-17.14,6.7-39.48-9.49-49.9-36.16-10.42-26.67-7.97-55.21,9.17-61.9,17.14-6.7,42.49,10.99,52.9,37.65Z"/><path class="cls-7" d="m330.23,205.81c-2.17,28.55-18.81,50.56-37.16,49.16-18.35-1.4-31.47-25.67-29.3-54.21,2.17-28.55,14.81-53.79,33.16-52.4,18.35,1.4,35.46,28.9,33.29,57.45Z"/><path class="cls-7" d="m374.06,214.75c-12.81,25.6-36.53,39.69-52.99,31.45-16.46-8.23-19.42-35.66-6.61-61.27,12.81-25.6,35.56-41.04,52.02-32.8,16.46,8.23,20.39,37.01,7.58,62.62Z"/><path class="cls-7" d="m414.3,218.38c-16.13,23.65-41.52,34.43-56.73,24.06-15.21-10.37-14.46-37.95,1.66-61.6,16.13-23.65,39.54-39.49,54.74-29.13,15.21,10.37,16.45,43.01.32,66.67Z"/><path class="cls-7" d="m473.49,208.49c-6.92,28.75-27.92,48.36-46.91,43.79-18.98-4.57-28.76-31.58-21.84-60.34,6.92-28.75,24.25-46.6,43.23-42.03,18.98,4.57,32.44,29.83,25.52,58.58Z"/><path class="cls-7" d="m516.46,232.1c-6.92,28.75-27.92,48.36-46.91,43.79-18.98-4.57-28.76-31.58-21.84-60.34,6.92-28.75,10.85-60.01,29.84-55.43,18.98,4.57,45.83,43.23,38.91,71.99Z"/><path class="cls-7" d="m527,256.99c-6.33,28.75-25.52,48.36-42.88,43.79-17.35-4.57-26.29-31.58-19.97-60.34,6.33-28.75,9.92-60.01,27.27-55.43,17.35,4.57,41.9,43.23,35.57,71.99Z"/><path class="cls-7" d="m283.19,271.7c0,7.26-5.62,10.49-12.87,10.49s-13.14-5.88-13.14-13.14,5.88-13.14,13.14-13.14,12.87,8.53,12.87,15.79Z"/><path class="cls-7" d="m302.62,266.5c0,7.26-5.62,10.49-12.87,10.49s-13.14-5.88-13.14-13.14,5.88-13.14,13.14-13.14,12.87,8.53,12.87,15.79Z"/><path class="cls-7" d="m322.97,253.31c0,8.23-6.37,11.89-14.59,11.89s-14.89-6.67-14.89-14.89,6.67-14.89,14.89-14.89,14.59,9.67,14.59,17.9Z"/><path class="cls-7" d="m301.7,271.62c0,21.29-16.48,30.78-37.77,30.78s-38.55-17.26-38.55-38.55,17.26-38.55,38.55-38.55,37.77,25.03,37.77,46.32Z"/><path class="cls-7" d="m360.65,258.08c0,21.29-16.48,30.78-37.77,30.78s-38.55-17.26-38.55-38.55,17.26-38.55,38.55-38.55,37.77,25.03,37.77,46.32Z"/><path class="cls-7" d="m400.91,243.18c0,21.29-16.48,30.78-37.77,30.78s-38.55-17.26-38.55-38.55,17.26-38.55,38.55-38.55,37.77,25.03,37.77,46.32Z"/><path class="cls-7" d="m366.7,249.39c0,8.23-6.37,11.89-14.59,11.89s-14.89-6.67-14.89-14.89,6.67-14.89,14.89-14.89,14.59,9.67,14.59,17.9Z"/><path class="cls-7" d="m391.27,249.39c0,8.23-6.37,11.89-14.59,11.89s-14.89-6.67-14.89-14.89,6.67-14.89,14.89-14.89,14.59,9.67,14.59,17.9Z"/><path class="cls-7" d="m438.56,251.53c0,14.09-15.56,20.38-35.67,20.38s-36.41-11.43-36.41-25.52,16.3-25.52,36.41-25.52,35.67,16.57,35.67,30.66Z"/><path class="cls-7" d="m471.52,258.08c0,14.09-14.23,20.38-32.61,20.38s-33.29-11.43-33.29-25.52,14.9-25.52,33.29-25.52,32.61,16.57,32.61,30.66Z"/><circle class="cls-7" cx="351.96" cy="359.99" r="18.59"/><path class="cls-3" d="m428.68,360.26s19.87,24.12,61.91,0"/><path class="cls-2" d="m388.55,461.98s61.71-6.4,39.72,12.75c-21.99,19.16-25.44,14.29-25.44,14.29,0,0,67.56,39.91-16.62,13.17"/></svg>