<?xml version="1.0" encoding="UTF-8"?><svg id="Layer_1" xmlns="http://www.w3.org/2000/svg" viewBox="0 0 352.08 402.19"><defs><style>.cls-1{fill:#d4e6aa;stroke-width:4px;}.cls-1,.cls-2,.cls-3,.cls-4{stroke:#303b19;stroke-miterlimit:10;}.cls-2{stroke-width:3.8px;}.cls-2,.cls-3,.cls-4{fill:none;}.cls-3{stroke-width:3.98px;}.cls-4{stroke-width:2.12px;}.cls-5{fill:#bdce38;}.cls-5,.cls-6,.cls-7{stroke-width:0px;}.cls-6{fill:#303b19;}.cls-7{fill:#fff;}</style></defs><path class="cls-6" d="m5.51,129.54c6.33,28.75,25.52,48.36,42.88,43.79,17.35-4.57,26.29-31.58,19.97-60.34-6.33-28.75-9.92-60.01-27.27-55.43C23.72,62.13-.82,100.79,5.51,129.54Z"/><path class="cls-6" d="m268.16,163.23l-8.67-53.11,73.78-15.43-5.48,126.24-5.55,1.35-1.65,19.09s-35.12-19.24-41.76-12.82l-5.81-35.59-13.52-20.6,8.67-9.13Z"/><path class="cls-1" d="m14,228.55c21.39-107.98,51.26-158.75,145.97-158.75s119.25,59.58,123.96,154.87c4.75-2.08,28.91-16.06,34.27-16.06,24.38,0,33.87,22.17,33.87,51.17s-7.66,37.53-33.87,53.83c-10.21,6.35-21.2.54-29.66-10.47-25.45,59.09-80.1,92.59-135.05,96.54C49.46,407.14-6.61,332.63,14,228.55Z"/><path class="cls-6" d="m39.72,214.04c0,12.95,13.73,23.44,30.67,23.44s30.67-10.5,30.67-23.44-14.24-24.16-31.18-24.16-30.15,11.21-30.15,24.16Z"/><path class="cls-7" d="m39.72,214.04c-.56,13.98,13.73,23.44,30.67,23.44s30.67-8.01,30.67-22.25c0-10.85-14.24-17.62-31.18-17.62s-29.72,5.6-30.15,16.43Z"/><path class="cls-6" d="m156.26,214.04c0,12.95,15.02,23.44,33.55,23.44s33.55-10.5,33.55-23.44-15.58-24.16-34.11-24.16-32.99,11.21-32.99,24.16Z"/><path class="cls-7" d="m156.26,214.04c-.61,13.98,15.02,23.44,33.55,23.44s33.55-8.01,33.55-22.25c0-10.85-15.58-17.62-34.11-17.62s-32.51,5.6-32.99,16.43Z"/><path class="cls-3" d="m137.43,236.92s-63.7,27.66-8.32,55.33"/><path class="cls-6" d="m149,185.62c0,8.47,18.27-7.14,40.8-7.14s40.8,15.61,40.8,7.14-18.27-28.81-40.8-28.81-40.8,20.34-40.8,28.81Z"/><path class="cls-6" d="m34.95,185.62c0,8.47,16.7-7.14,37.3-7.14s37.3,15.61,37.3,7.14-16.7-28.81-37.3-28.81-37.3,20.34-37.3,28.81Z"/><circle class="cls-5" cx="214.2" cy="292.25" r="37.95"/><ellipse class="cls-5" cx="55.37" cy="286.87" rx="26.98" ry="29.52"/><path class="cls-4" d="m305.45,222.52s48.65,96.76,2.38,58.63c-46.27-38.13,17.59-11.42,17.59-11.42"/><path class="cls-6" d="m277.19,75.21c-18.96,21.45-23.14,48.72-9.35,60.91,13.79,12.19,40.34,4.67,59.29-16.78,18.96-21.45,27-48.4,13.21-60.59-13.79-12.19-44.19-4.99-63.15,16.46Z"/><path class="cls-6" d="m282.46,147.04c21.45,18.96,48.72,23.14,60.91,9.35,12.19-13.79,4.67-40.34-16.78-59.29-21.45-18.96-48.4-27-60.59-13.21-12.19,13.79-4.99,44.19,16.46,63.15Z"/><path class="cls-6" d="m234.29,60.43c-10.42,26.67-4.96,53.71,12.18,60.41,17.14,6.7,39.48-9.49,49.9-36.16,10.42-26.67,7.97-55.21-9.17-61.9s-42.49,10.99-52.9,37.65Z"/><path class="cls-6" d="m199.79,57.51c2.17,28.55,18.81,50.56,37.16,49.16,18.35-1.4,31.47-25.67,29.3-54.21S251.44-1.34,233.08.06s-35.46,28.9-33.29,57.45Z"/><path class="cls-6" d="m155.96,66.44c12.81,25.6,36.53,39.69,52.99,31.45,16.46-8.23,19.42-35.66,6.61-61.27-12.81-25.6-35.56-41.04-52.02-32.8-16.46,8.23-20.39,37.01-7.58,62.62Z"/><path class="cls-6" d="m115.72,70.08c16.13,23.65,41.52,34.43,56.73,24.06,15.21-10.37,14.46-37.95-1.66-61.6C154.66,8.88,131.25-6.95,116.04,3.41c-15.21,10.37-16.45,43.01-.32,66.67Z"/><path class="cls-6" d="m56.53,60.18c6.92,28.75,27.92,48.36,46.91,43.79,18.98-4.57,28.76-31.58,21.84-60.34C118.35,14.88,101.03-2.97,82.05,1.6c-18.98,4.57-32.44,29.83-25.52,58.58Z"/><path class="cls-6" d="m13.56,83.79c6.92,28.75,27.92,48.36,46.91,43.79,18.98-4.57,28.76-31.58,21.84-60.34-6.92-28.75-10.85-60.01-29.84-55.43C33.48,16.37,6.63,55.04,13.56,83.79Z"/><path class="cls-6" d="m3.02,108.68c6.33,28.75,25.52,48.36,42.88,43.79,17.35-4.57,26.29-31.58,19.97-60.34-6.33-28.75-9.92-60.01-27.27-55.43C21.23,41.27-3.31,79.93,3.02,108.68Z"/><path class="cls-6" d="m246.83,123.39c0,7.26,5.62,10.49,12.87,10.49s13.14-5.88,13.14-13.14-5.88-13.14-13.14-13.14-12.87,8.53-12.87,15.79Z"/><path class="cls-6" d="m227.4,118.2c0,7.26,5.62,10.49,12.87,10.49s13.14-5.88,13.14-13.14-5.88-13.14-13.14-13.14-12.87,8.53-12.87,15.79Z"/><path class="cls-6" d="m207.05,105c0,8.23,6.37,11.89,14.59,11.89s14.89-6.67,14.89-14.89-6.67-14.89-14.89-14.89-14.59,9.67-14.59,17.9Z"/><path class="cls-6" d="m228.32,123.32c0,21.29,16.48,30.78,37.77,30.78s38.55-17.26,38.55-38.55-17.26-38.55-38.55-38.55-37.77,25.03-37.77,46.32Z"/><path class="cls-6" d="m169.37,109.77c0,21.29,16.48,30.78,37.77,30.78s38.55-17.26,38.55-38.55-17.26-38.55-38.55-38.55-37.77,25.03-37.77,46.32Z"/><path class="cls-6" d="m129.11,94.88c0,21.29,16.48,30.78,37.77,30.78s38.55-17.26,38.55-38.55-17.26-38.55-38.55-38.55-37.77,25.03-37.77,46.32Z"/><path class="cls-6" d="m163.32,101.09c0,8.23,6.37,11.89,14.59,11.89s14.89-6.67,14.89-14.89-6.67-14.89-14.89-14.89-14.59,9.67-14.59,17.9Z"/><path class="cls-6" d="m138.75,101.09c0,8.23,6.37,11.89,14.59,11.89s14.89-6.67,14.89-14.89-6.67-14.89-14.89-14.89-14.59,9.67-14.59,17.9Z"/><path class="cls-6" d="m91.46,103.23c0,14.09,15.56,20.38,35.67,20.38s36.41-11.43,36.41-25.52-16.3-25.52-36.41-25.52-35.67,16.57-35.67,30.66Z"/><path class="cls-6" d="m58.5,109.77c0,14.09,14.23,20.38,32.61,20.38s33.29-11.43,33.29-25.52-14.9-25.52-33.29-25.52-32.61,16.57-32.61,30.66Z"/><circle class="cls-6" cx="189.81" cy="213.68" r="18.59"/><circle class="cls-6" cx="73.73" cy="213.68" r="18.59"/><path class="cls-2" d="m171.22,330.2s-33.1,22.6-51.37,16.65c-18.27-5.95-37.5-24.89-37.5-24.89"/></svg>