<?xml version="1.0" encoding="UTF-8"?><svg id="Layer_1" xmlns="http://www.w3.org/2000/svg" viewBox="0 0 700.54 733.84"><defs><style>.cls-1{fill:#d4e6aa;stroke-width:4px;}.cls-1,.cls-2,.cls-3,.cls-4{stroke:#303b19;stroke-miterlimit:10;}.cls-2{stroke-width:3.8px;}.cls-2,.cls-3,.cls-4{fill:none;}.cls-3{stroke-width:3.98px;}.cls-4{stroke-width:2.12px;}.cls-5{fill:#bdce38;}.cls-5,.cls-6,.cls-7{stroke-width:0px;}.cls-6{fill:#303b19;}.cls-7{fill:#fff;}</style></defs><path class="cls-6" d="m174.86,450.44s35.12-19.24,41.76-12.82l19.33-118.43-73.78-15.43,12.68,146.68Z"/><path class="cls-6" d="m489.94,338.62c-6.33,28.75-25.52,48.36-42.88,43.79-17.35-4.57-26.29-31.58-19.97-60.34,6.33-28.75,9.92-60.01,27.27-55.43s41.9,43.23,35.57,71.99Z"/><polygon class="cls-6" points="167.66 430 162.18 303.76 235.96 381.43 199.07 437.62 167.66 430"/><path class="cls-1" d="m481.45,436.7c-21.39-107.98-51.26-158.75-145.97-158.75s-119.25,59.58-123.96,154.87c-4.75-2.08-28.91-16.06-34.27-16.06-24.38,0-33.87,22.17-33.87,51.17s7.66,37.53,33.87,53.83c10.21,6.35,21.2.54,29.66-10.47,25.45,59.09,80.1,92.59,135.05,96.54,104.03,7.47,160.11-67.04,139.49-171.12Z"/><path class="cls-6" d="m455.73,423.12c0,12.95-13.73,23.44-30.67,23.44s-30.67-10.5-30.67-23.44,14.24-24.16,31.18-24.16,30.15,11.21,30.15,24.16Z"/><path class="cls-7" d="m455.73,423.12c.56,13.98-13.73,23.44-30.67,23.44s-30.67-8.01-30.67-22.25c0-10.85,14.24-17.62,31.18-17.62s29.72,5.6,30.15,16.43Z"/><path class="cls-6" d="m339.19,423.12c0,12.95-15.02,23.44-33.55,23.44s-33.55-10.5-33.55-23.44,15.58-24.16,34.11-24.16,32.99,11.21,32.99,24.16Z"/><path class="cls-7" d="m339.19,423.12c.61,13.98-15.02,23.44-33.55,23.44s-33.55-8.01-33.55-22.25c0-10.85,15.58-17.62,34.11-17.62s32.51,5.6,32.99,16.43Z"/><path class="cls-3" d="m358.02,446s63.7,27.66,8.32,55.33"/><path class="cls-6" d="m346.45,381.51c0,8.47-18.27-7.14-40.8-7.14s-40.8,15.61-40.8,7.14,18.27-28.81,40.8-28.81,40.8,20.34,40.8,28.81Z"/><path class="cls-6" d="m460.51,383.84c0,8.47-16.7-7.14-37.3-7.14s-37.3,15.61-37.3,7.14,16.7-28.81,37.3-28.81,37.3,20.34,37.3,28.81Z"/><circle class="cls-5" cx="281.25" cy="501.32" r="37.95"/><ellipse class="cls-5" cx="440.08" cy="495.94" rx="26.98" ry="29.52"/><path class="cls-4" d="m190.01,431.6s-48.65,96.76-2.38,58.63c46.27-38.13-17.59-11.42-17.59-11.42"/><path class="cls-6" d="m218.27,284.28c18.96,21.45,23.14,48.72,9.35,60.91s-40.34,4.67-59.29-16.78c-18.96-21.45-27-48.4-13.21-60.59,13.79-12.19,44.19-4.99,63.15,16.46Z"/><path class="cls-6" d="m212.99,356.12c-21.45,18.96-48.72,23.14-60.91,9.35-12.19-13.79-4.67-40.34,16.78-59.29,21.45-18.96,48.4-27,60.59-13.21,12.19,13.79,4.99,44.19-16.46,63.15Z"/><path class="cls-6" d="m261.16,269.51c10.42,26.67,4.96,53.71-12.18,60.41s-39.48-9.49-49.9-36.16c-10.42-26.67-7.97-55.21,9.17-61.9,17.14-6.7,42.49,10.99,52.9,37.65Z"/><path class="cls-6" d="m295.66,266.58c-2.17,28.55-18.81,50.56-37.16,49.16-18.35-1.4-31.47-25.67-29.3-54.21,2.17-28.55,14.81-53.79,33.16-52.4s35.46,28.9,33.29,57.45Z"/><path class="cls-6" d="m339.49,275.52c-12.81,25.6-36.53,39.69-52.99,31.45-16.46-8.23-19.42-35.66-6.61-61.27,12.81-25.6,35.56-41.04,52.02-32.8s20.39,37.01,7.58,62.62Z"/><path class="cls-6" d="m379.73,279.15c-16.13,23.65-41.52,34.43-56.73,24.06-15.21-10.37-14.46-37.95,1.66-61.6,16.13-23.65,39.54-39.49,54.74-29.13s16.45,43.01.32,66.67Z"/><path class="cls-6" d="m438.93,269.25c-6.92,28.75-27.92,48.36-46.91,43.79-18.98-4.57-28.76-31.58-21.84-60.34,6.92-28.75,24.25-46.6,43.23-42.03,18.98,4.57,32.44,29.83,25.52,58.58Z"/><path class="cls-6" d="m481.9,292.86c-6.92,28.75-27.92,48.36-46.91,43.79-18.98-4.57-28.76-31.58-21.84-60.34,6.92-28.75,10.85-60.01,29.84-55.43,18.98,4.57,45.83,43.23,38.91,71.99Z"/><path class="cls-6" d="m492.43,317.75c-6.33,28.75-25.52,48.36-42.88,43.79-17.35-4.57-26.29-31.58-19.97-60.34,6.33-28.75,9.92-60.01,27.27-55.43,17.35,4.57,41.9,43.23,35.57,71.99Z"/><path class="cls-6" d="m248.62,332.47c0,7.26-5.62,10.49-12.87,10.49s-13.14-5.88-13.14-13.14,5.88-13.14,13.14-13.14,12.87,8.53,12.87,15.79Z"/><path class="cls-6" d="m268.05,327.27c0,7.26-5.62,10.49-12.87,10.49s-13.14-5.88-13.14-13.14,5.88-13.14,13.14-13.14,12.87,8.53,12.87,15.79Z"/><path class="cls-6" d="m288.4,314.08c0,8.23-6.37,11.89-14.59,11.89s-14.89-6.67-14.89-14.89,6.67-14.89,14.89-14.89,14.59,9.67,14.59,17.9Z"/><path class="cls-6" d="m267.13,332.39c0,21.29-16.48,30.78-37.77,30.78s-38.55-17.26-38.55-38.55,17.26-38.55,38.55-38.55,37.77,25.03,37.77,46.32Z"/><path class="cls-6" d="m326.08,318.85c0,21.29-16.48,30.78-37.77,30.78s-38.55-17.26-38.55-38.55,17.26-38.55,38.55-38.55,37.77,25.03,37.77,46.32Z"/><path class="cls-6" d="m366.34,303.95c0,21.29-16.48,30.78-37.77,30.78s-38.55-17.26-38.55-38.55,17.26-38.55,38.55-38.55,37.77,25.03,37.77,46.32Z"/><path class="cls-6" d="m332.13,310.16c0,8.23-6.37,11.89-14.59,11.89s-14.89-6.67-14.89-14.89,6.67-14.89,14.89-14.89,14.59,9.67,14.59,17.9Z"/><path class="cls-6" d="m356.7,310.16c0,8.23-6.37,11.89-14.59,11.89s-14.89-6.67-14.89-14.89,6.67-14.89,14.89-14.89,14.59,9.67,14.59,17.9Z"/><path class="cls-6" d="m404,312.3c0,14.09-15.56,20.38-35.67,20.38s-36.41-11.43-36.41-25.52,16.3-25.52,36.41-25.52,35.67,16.57,35.67,30.66Z"/><path class="cls-6" d="m436.95,318.85c0,14.09-14.23,20.38-32.61,20.38s-33.29-11.43-33.29-25.52,14.9-25.52,33.29-25.52,32.61,16.57,32.61,30.66Z"/><circle class="cls-6" cx="317.39" cy="420.76" r="18.59"/><circle class="cls-6" cx="433.87" cy="420.76" r="18.59"/><path class="cls-2" d="m365.52,520.79c-21.69.35-24.36,31.94-2.97,35.57,4.71.8,9.21.81,13.06-.44.18-.06.37-.12.55-.18,18.58-6.3,14.77-33.84-4.82-34.85-1.92-.1-3.87-.14-5.81-.11Z"/></svg>