<?xml version="1.0" encoding="UTF-8"?><svg id="Layer_1" xmlns="http://www.w3.org/2000/svg" xmlns:xlink="http://www.w3.org/1999/xlink" viewBox="0 0 198.12 201.53"><defs><style>.cls-1{clip-path:url(#clippath);}.cls-2{fill:none;}.cls-2,.cls-3{stroke-width:0px;}.cls-3{fill:#31194d;}</style><clipPath id="clippath"><rect class="cls-2" width="198.12" height="201.53"/></clipPath></defs><g id="Group_26"><g class="cls-1"><g id="Group_25"><path id="Path_544" class="cls-3" d="m197.91,59.5c.25,15.04-4.6,27.57-13.23,38.79-.65.84-1.79,1.64-1.68,2.64.1.93,1.31,1.53,2.03,2.27,3.17,3.28,6.45,6.43,9.45,9.87,5.11,5.85,4.51,15.54.21,21.1-3.33,4.53-8.61,7.23-14.23,7.29-.14,0-.29,0-.43,0-1.72.07-1.88.24-1.9,1.95.07,8.96-6.47,16.6-15.33,17.92-1.14.17-2.28.26-3.43.28-.86.02-1.19.31-1.22,1.2.03,2.99-.61,5.95-1.89,8.65-3.23,6.31-8.45,9.57-15.45,10.06-2.95.21-2.73-.09-2.81,2.96-.19,7.71-6.5,15.57-14.04,16.68-5.32.78-10.64.54-14.9-3.67-1.45-1.43-3.03-2.75-4.48-4.19-2.17-2.15-4.35-4.28-6.48-6.46-.6-.61-.97-.58-1.57.01-2.67,2.65-5.26,5.4-8.17,7.81-2.09,1.89-4.74,3.06-7.56,3.33-3.39.22-6.85.6-10.04-1.02-5.26-2.67-9.07-6.62-10.5-12.51-.28-1.45-.41-2.92-.39-4.39-.06-1.67-.14-1.77-1.8-1.76-7.72.14-14.66-4.68-17.22-11.97-.59-1.77-.93-3.62-.98-5.49-.13-2.54-.12-2.5-2.61-2.62-7.28-.36-12.54-3.85-15.79-10.36-1.07-2.4-1.63-5-1.65-7.62-.1-1.87-.17-1.98-2.07-2.03-6.51,0-12.52-3.48-15.74-9.14C.67,126.96-.03,124.47.01,121.94c.04-1.54-.02-3.08.09-4.63.28-3.92,2.51-6.8,5.04-9.5,2.11-2.25,4.3-4.43,6.5-6.6.56-.55.57-.89.1-1.51-5.65-7.65-9.47-16.49-11.16-25.84-.34-1.8-.51-3.62-.51-5.45-.04-4.23-.2-8.47.19-12.7.43-3.85,1.31-7.65,2.61-11.3,2.97-8.85,7.98-16.87,14.64-23.42C29.68,8.7,46.57,2.26,63.84,3.33c8.67.48,17.12,2.88,24.74,7.03,2.59,1.33,5.06,2.86,7.41,4.58.52.55,1.39.57,1.94.05.03-.03.07-.07.1-.1,4.1-3.55,8.65-6.56,13.53-8.93,15.85-7.64,34.25-7.97,50.37-.92,9.52,4.08,17.81,10.59,24.03,18.88,5.58,7.4,9.38,15.97,11.11,25.07.67,3.47.95,6.99.84,10.52M59.48,11.11c-3.36-.14-6.72.13-10.01.81-13.76,2.99-24.57,10.47-32.67,21.86-7.53,10.6-10.24,22.51-8.95,35.4.85,8.5,3.8,16.66,8.57,23.75,1.4,2.11,1.45,2.18,3.74,1.13,3.63-1.75,7.77-2.16,11.67-1.16,6.28,1.46,11.27,6.2,13.07,12.39.6,1.92.85,3.94.72,5.95-.04.73.25,1.04.99,1.04.75.02,1.5.09,2.25.2,7.72,1.01,13.48,4.94,15.78,12.36.63,2.02,1,4.11,1.11,6.23.06,1.12.56,1.31,1.56,1.31,4.24-.07,8.37,1.38,11.64,4.08,4.77,3.87,6.76,9.02,6.74,15.04,0,.7.3.84.88.91,1.72.09,3.43.27,5.12.54,8.31,1.85,14.17,9.31,14,17.82-.03,3.14-.9,6.22-2.54,8.9-.45.51-.41,1.3.11,1.75.04.03.08.06.12.09,1.16,1.07,2.2,2.27,3.33,3.37,2.26,2.2,4.47,4.45,6.89,6.5,4.53,3.85,12.92,3.33,15.83-3.55,1.52-3.58,1.49-7.03-1.25-10.15-2.09-2.37-4.26-4.66-6.44-6.95-1.7-1.6-3.27-3.33-4.68-5.19-1.05-1.35-.85-3.28.46-4.38,1.09-1.35,3.05-1.62,4.46-.62.85.6,1.65,1.26,2.4,1.99,2.64,2.48,5.23,5.02,7.9,7.47,1.16,1.06,2.2,2.4,3.72,2.89,5.12,1.65,9.55.99,12.73-3.72,2.43-3.54,2.22-8.26-.52-11.57-1.77-2.17-3.77-4.14-5.68-6.18-1.86-1.99-3.97-3.76-5.49-6.05-.87-1.39-.64-3.2.55-4.32,1.07-1.19,2.82-1.48,4.21-.68.86.53,1.65,1.15,2.36,1.86,3.16,2.98,6.35,5.93,9.48,8.94,1.92,1.85,4.54,2.77,7.19,2.52,3.7-.03,7.04-2.24,8.52-5.63,1.68-3.62,1.59-7.26-1.09-10.51-1.1-1.33-2.29-2.57-3.47-3.83-2.54-2.73-5.32-5.24-7.56-8.25-1.07-1.67-.58-3.89,1.09-4.96,1.14-.73,2.59-.75,3.76-.06.57.38,1.11.8,1.61,1.26,3.43,3.11,6.6,6.5,10.13,9.49,1.1,1.14,2.49,1.96,4.02,2.39,2.99.64,6.12-.07,8.54-1.94,4.26-2.91,5.35-8.72,2.44-12.98-.16-.24-.34-.47-.52-.7-2.23-2.77-4.62-5.41-7.15-7.9-8.91-9.01-17.84-17.99-26.8-26.95-7.3-7.31-14.62-14.61-21.95-21.89-3.21-3.19-6.4-6.39-9.9-9.27-.8-.68-1.78-1.1-2.82-1.2-3.63-.53-7.29.72-9.83,3.36-7.29,7.22-14.67,14.36-21.95,21.6-5.47,5.44-10.91,10.91-16.56,16.16-1.82,1.89-3.91,3.5-6.2,4.78-6.37,2.93-13.86,1.81-19.09-2.86-2.97-2.63-5.27-5.73-5.79-9.78-.24-1.84-.04-3.73-.14-5.59-.13-2.43.64-4.82,2.17-6.71.87-1.14,1.74-2.29,2.7-3.36,5.46-6.1,11.35-11.78,17.13-17.58,9.5-9.53,19.03-19.04,28.36-28.74.67-.7.7-1.07-.13-1.63-3.62-2.46-7.51-4.51-11.58-6.12-6.15-2.3-12.68-3.39-19.24-3.2m131,49.55c-.03-2.05-.17-4.09-.43-6.12-1.15-11.2-5.93-21.72-13.62-29.95-11.42-12.33-25.83-17.46-42.39-16.81-5.1.23-10.13,1.33-14.86,3.27-4.68,1.88-9.25,3.99-13.08,7.34-5.38,4.7-10.46,9.73-15.56,14.73-8.12,7.97-16.25,15.92-24.21,24.06-4.79,4.9-9.6,9.79-14.35,14.73-1.29,1.34-2.79,2.57-3.58,4.27-1.85,3.99-.68,10.77,4.63,13.18,3.68,1.87,8.13,1.23,11.14-1.59,4.69-4.19,9.09-8.67,13.59-13.06,8.99-8.78,17.75-17.79,26.86-26.44,3.77-3.73,8.95-5.67,14.25-5.34,3.51-.01,6.9,1.25,9.54,3.56,1.2,1.08,2.47,2.08,3.65,3.18,6.61,6.12,12.86,12.61,19.3,18.92,6.28,6.15,12.46,12.42,18.73,18.58,2.25,2.32,4.63,4.51,7.12,6.56.64.5,1.12.53,1.6-.19.44-.66.92-1.28,1.39-1.92,6.8-9.2,9.91-19.62,10.3-30.95M37.97,110.54c-.22-4.22-2.09-7.49-5.92-9.4-3.38-1.88-7.59-1.42-10.48,1.16-4.39,3.64-8.41,7.71-12,12.15-2.68,3.3-2.75,7.03-.8,10.69,1.73,3.39,5.24,5.49,9.04,5.41,2.83.09,5-1.32,7-3.08,3.58-3.21,6.98-6.62,10.17-10.21,1.71-1.89,3.15-3.94,2.99-6.72m29.75,69.32c-.17,5.45,2.57,9.22,7.4,10.26,3.4.73,6.6.45,9.34-2.09,3.67-3.38,7.21-6.88,10.61-10.53,4.25-4.58,3.79-10.45-.67-14.84-3.18-3.13-9.55-3.07-12.39-.53-4.36,3.84-8.45,7.97-12.26,12.36-1.36,1.59-2.31,3.39-2.04,5.36m-9.75-49.57c-.11-1.89-.71-3.72-1.74-5.32-2.48-4.24-8.92-6.96-13.74-3.17-4.99,3.94-9.49,8.46-13.41,13.47-3.2,4.07-1.2,10.16,1.38,12.46,3.37,3,9.19,4.33,13.47.51,4.05-3.55,7.88-7.34,11.47-11.34,1.66-1.8,2.58-4.16,2.56-6.61m-.08,40.2c2.22.07,4.38-.71,6.05-2.18,4.3-3.59,8.26-7.57,11.84-11.88,2.5-3.01,2.82-6.37,1.28-9.98-2.92-6.88-11.3-8.09-15.76-3.74-3.26,3.18-6.68,6.2-9.78,9.54-1.39,1.26-2.52,2.77-3.34,4.45-1.97,5.29.71,11.17,6,13.14,1.19.44,2.44.66,3.71.64"/></g></g></g></svg>