<?xml version="1.0" encoding="UTF-8"?><svg id="Layer_1" xmlns="http://www.w3.org/2000/svg" xmlns:xlink="http://www.w3.org/1999/xlink" viewBox="0 0 201.4 211.34"><defs><style>.cls-1{clip-path:url(#clippath);}.cls-2{fill:none;}.cls-2,.cls-3{stroke-width:0px;}.cls-3{fill:#31194d;}</style><clipPath id="clippath"><rect class="cls-2" width="201.4" height="211.34"/></clipPath></defs><g id="Group_30"><g class="cls-1"><g id="Group_29"><path id="Path_549" class="cls-3" d="m12.72,196.62L7.16,64.98l71.34,11.93,1.71-4.15c.4-.97.68-1.99.82-3.03l7.01-50.34C89.72,7.11,101.02-1.48,113.3.19c4.25.58,8.24,2.36,11.5,5.14l.29.25c7.55,6.39,10.04,16.96,6.12,26.04l-1.55,3.6c-.7,1.62-1.05,3.38-1.01,5.15l.42,23.47c.12,6.87,5.79,12.34,12.66,12.22.02,0,.05,0,.07,0l36.62-.85.12,5.01-.12-5.01c12.39-.29,22.68,9.51,22.98,21.91,0,.18,0,.37,0,.55v67.55c0,12.41-10.06,22.46-22.46,22.46h-67.6c-.65,0-1.74.02-2.99.05-3.73.08-9.38.2-14.52-.02-2.47-.08-4.93-.32-7.36-.7-1.26-.2-2.49-.52-3.68-.96l-70.07,10.59Zm3.68-123.86l3.25,114.97,65.03-12.75,1.83,1.75c.58.21,2.69.8,8.83,1.01,4.54.15,9.5.05,12.79-.02,1.36-.03,2.44-.05,3.21-.05h67.6c6.87,0,12.44-5.57,12.44-12.44v-67.55c0-6.87-5.57-12.44-12.44-12.44-.1,0-.19,0-.29,0l-36.62.85c-12.4.29-22.69-9.54-22.98-21.94,0-.04,0-.08,0-.12l-.42-23.47c-.06-3.2.56-6.37,1.83-9.3l1.55-3.6c2.17-5.03.79-10.89-3.39-14.43l-.29-.25c-5.25-4.44-13.1-3.78-17.54,1.46-1.52,1.8-2.5,3.99-2.82,6.32l-7.01,50.35c-.26,1.88-.76,3.72-1.48,5.47l-5.27,12.76-67.8-16.59Z"/><rect id="Rectangle_83" class="cls-3" x="77.33" y="83.12" width="10.02" height="97.51" transform="translate(-2.66 1.7) rotate(-1.16)"/><path id="Path_550" class="cls-3" d="m40.07,104.51c-5.54,0-10.03-4.49-10.03-10.03s4.49-10.03,10.03-10.03,10.03,4.49,10.03,10.03h0c0,5.54-4.49,10.02-10.03,10.03m0-10.04h0s0,.02,0,.02h0s0-.01,0-.01"/><path id="Path_551" class="cls-3" d="m40.07,170.63c-5.54,0-10.03-4.49-10.03-10.03s4.49-10.03,10.03-10.03,10.03,4.49,10.03,10.03h0c0,5.54-4.49,10.02-10.03,10.03m0-10.04h0s0,.02,0,.02h0v-.02s0,0,0,0"/></g></g></g></svg>