<?xml version="1.0" encoding="UTF-8"?><svg id="Layer_1" xmlns="http://www.w3.org/2000/svg" xmlns:xlink="http://www.w3.org/1999/xlink" viewBox="0 0 212.05 211.34"><defs><style>.cls-1{clip-path:url(#clippath);}.cls-2{fill:none;}.cls-2,.cls-3{stroke-width:0px;}.cls-3{fill:#31194d;}</style><clipPath id="clippath"><rect class="cls-2" width="212.05" height="211.34"/></clipPath></defs><g id="Group_22"><g class="cls-1"><g id="Group_21"><path id="Path_542" class="cls-3" d="m55.15,11.28h0c1.01,0,2.03.03,3.05.1,4.19.36,8.23,1.71,11.78,3.94,4.21,2.61,8.02,5.82,11.3,9.53,7.08,8.02,12.75,17.18,16.76,27.1,1.53,3.78,4.62,6.15,7.99,6.15h0c3.37,0,6.46-2.38,7.99-6.16,4.18-10.34,10.29-19.79,18-27.85,3.59-3.74,7.74-6.9,12.3-9.37,3.99-2.17,8.44-3.34,12.98-3.42.28,0,.56,0,.84.02,6.04.21,11.96,1.71,17.37,4.4,5.35,2.66,10.14,6.31,14.1,10.77,8.27,9.35,13.02,21.3,13.42,33.78.24,5.88-.45,11.76-2.03,17.42-1.51,5.4-3.87,10.53-6.99,15.2-.6.9-1.24,1.79-1.89,2.64-.07.09-.13.18-.2.28l-67.77,94.63c-6.76,10.01-20.36,12.64-30.37,5.87-2.32-1.57-4.31-3.56-5.87-5.88L20.82,96.7c-.1-.15-.21-.29-.32-.43-1.07-1.35-2.07-2.74-3-4.19-5.06-7.95-7.96-17.07-8.44-26.47-.39-6.65.34-13.32,2.17-19.72,1.68-5.89,4.41-11.43,8.04-16.35,2.04-2.75,4.36-5.26,6.94-7.5,2.58-2.24,5.41-4.17,8.43-5.76,3.08-1.61,6.34-2.85,9.71-3.69,3.53-.87,7.16-1.31,10.79-1.3m0-11.28C22.77,0-1.88,29.25.11,66.36c.57,11.65,4.16,22.95,10.41,32.8h0c1.13,1.75,2.34,3.45,3.63,5.08l67.1,93.74c6.37,8.91,15.58,13.36,24.79,13.36s18.41-4.45,24.78-13.35l67.77-94.63c.79-1.04,1.56-2.1,2.29-3.2h0c7.88-11.97,11.77-26.12,11.11-40.44C210.74,27.14,187.3,1.06,158.4.04c-.36-.01-.73-.02-1.09-.02-22.82,0-42.51,25.14-51.27,46.79C97.78,26.46,79.8,1.48,58.65.11c-1.18-.07-2.35-.11-3.51-.11"/></g></g></g></svg>