<?xml version="1.0" encoding="UTF-8"?><svg id="Layer_1" xmlns="http://www.w3.org/2000/svg" xmlns:xlink="http://www.w3.org/1999/xlink" viewBox="0 0 101.09 120.06"><defs><style>.cls-1{clip-path:url(#clippath);}.cls-2{fill:none;}.cls-2,.cls-3,.cls-4,.cls-5{stroke-width:0px;}.cls-3{fill:#8434d5;}.cls-4{fill:#d1ffaf;}.cls-5{fill:#fdf8c4;}</style><clipPath id="clippath"><rect class="cls-2" y="0" width="101.09" height="120.06"/></clipPath></defs><g class="cls-1"><g id="Group_92"><path id="Path_1075" class="cls-4" d="m2.78,106.03c-2.48-.48-3.04-2.1-2.68-4.37,2.41-15.52,4.77-31.05,7.2-46.58,2.61-16.63,5.26-33.26,7.95-49.88C15.79,1.82,17.44.17,21.32.22c15.83.2,31.69-1.1,47.48,1.01,3.62.51,7.14,1.56,10.45,3.12,8.58,3.96,13.16,11.92,12.64,21.9-.06,1.22-.14,2.43-.21,3.65l-.59,1.19c-7.38-2.84-15.08-3.43-22.9-3.4-7.68.04-15.36,0-23.04.01-5.59,0-6.94,1.07-7.9,6.55-1.01,5.81-1.97,11.63-2.76,17.47-.78,5.74-2.36,11.36-2.39,17.2-.25,1.18-.54,2.36-.73,3.55-1.62,10.32-3.29,20.63-4.78,30.96-.3,2.07-1.13,2.6-3.06,2.57-6.91-.07-13.83,0-20.74.01"/><path id="Path_1076" class="cls-5" d="m26.59,103.44c1.49-10.34,3.16-20.65,4.78-30.96.19-1.19.48-2.37.73-3.55,2.14-2.36,4.97-2.79,7.94-2.82,5.9-.06,11.79.15,17.68-.63,11.75-1.55,21.14-6.78,27.29-17.11,3.17-5.32,5.86-10.88,6.07-17.27l.59-1.19c-.07.94.29,1.87.98,2.52,7.89,6.01,9.32,14.26,8.01,23.42-1.84,12.86-8,22.63-20.14,28.12-4.14,1.8-8.59,2.76-13.09,2.84-2.81-.02-5.62.14-8.41.48-2.34.17-4.19,2.05-4.32,4.39-1.14,7.69-2.34,15.37-3.48,23.06-.55,3.73-2.21,5.31-5.92,5.33-5.63.03-11.25.02-16.88-.01-3.6-.03-4.22-.79-3.72-4.47.26-1.95.47-3.91.91-5.83"/><path id="Path_1077" class="cls-3" d="m91.08,31.09c-.21,6.39-2.9,11.95-6.07,17.27-6.15,10.33-15.54,15.55-27.29,17.11-5.89.78-11.78.57-17.68.63-2.97.03-5.8.46-7.94,2.82.03-5.84,1.62-11.46,2.39-17.2.79-5.84,1.76-11.66,2.76-17.47.95-5.49,2.3-6.55,7.9-6.55,7.68,0,15.36.03,23.04-.01,7.81-.04,15.52.55,22.9,3.4"/></g></g></svg>