<?xml version="1.0" encoding="UTF-8"?><svg id="Layer_1" xmlns="http://www.w3.org/2000/svg" viewBox="0 0 682.93 715.38"><defs><style>.cls-1{fill:#674a9e;stroke-width:4px;}.cls-1,.cls-2,.cls-3,.cls-4,.cls-5{stroke:#360b3d;stroke-miterlimit:10;}.cls-2{stroke-width:5px;}.cls-2,.cls-3,.cls-4,.cls-5{fill:none;}.cls-3{stroke-width:5.75px;}.cls-4{stroke-width:2.38px;}.cls-6{fill:#360b3d;}.cls-6,.cls-7,.cls-8{stroke-width:0px;}.cls-7{fill:#8973b4;}.cls-8{fill:#fff;}.cls-5{stroke-width:2.73px;}</style></defs><path class="cls-6" d="m246.78,422.07c-.15,12.18-6.02,25-22.79,25.27-.81.01-1.21.99-.63,1.56,5.96,5.85,27.64,23.39,32.01-26.41.19-2.16-1.26-4.14-3.38-4.59h-.03c-2.66-.58-5.14,1.45-5.18,4.17Z"/><path class="cls-6" d="m249.07,440.2c7.33,7.13,11.74,18.12,2.21,28.48-.46.5-.1,1.31.59,1.28,7.01-.24,30.22-3.31,2.43-34.75-1.21-1.37-3.25-1.62-4.75-.59l-.02.02c-1.89,1.29-2.09,3.97-.45,5.56Z"/><path class="cls-6" d="m472.43,264.72c0,70.63-57.25,127.88-127.88,127.88s-127.88-57.25-127.88-127.88,67.28-103.01,137.9-103.01,117.86,32.39,117.86,103.01Z"/><path class="cls-6" d="m216.67,264.72l5.27,61.19s19.44,123.23,60.81,148.34c0,0,33.75-17.84,22.31,4.44"/><path class="cls-1" d="m353.87,215.99c-74.91,0-101.55,52.56-103.62,120.37-12.07-8.58-26.62-12.5-40.34-9.58-25.74,5.47-38.78,32.9-29.12,61.27,9.66,28.37,38.36,46.94,64.1,41.48,5.58-1.18,10.55-3.4,14.84-6.43,19.51,45.7,104.96,120.62,189.8,84.57,29.15-12.38,39.99-42.12,55.6-141.83,24.71-157.85-130.39-149.84-151.26-149.84Z"/><path class="cls-5" d="m242.22,341.92s-66.5,102.9-7.08,60.43c59.43-42.48-20.75-10.49-20.75-10.49"/><path class="cls-6" d="m256.73,333.81l17.98,16.22,42.29-74.18c4.51-7.92,13.83-11.69,22.53-9.13l65.65,19.32c3.91,1.15,8.07,1.05,11.91-.29l42.43-14.76c8.02-2.79,16.91-.08,22.04,6.73l24.26,32.16s43.72-124.62-117.87-151.45c-156.53-25.99-131.22,175.39-131.22,175.39Z"/><path class="cls-6" d="m386.87,212.76c35.76,4.44,71.52,26.03,66.86,75.75-.23,2.4,2.52,3.9,4.37,2.37,19.15-15.72,77.74-74.16-67.2-103.42-6.3-1.27-12.57,2.37-14.6,8.51l-.03.1c-2.55,7.69,2.6,15.7,10.59,16.69Z"/><path class="cls-6" d="m245.01,241.29c35.76,4.44,71.52,26.03,66.86,75.75-.23,2.4,2.52,3.9,4.37,2.37,19.15-15.72,77.74-74.16-67.2-103.42-6.3-1.27-12.57,2.37-14.6,8.51l-.03.1c-2.55,7.69,2.6,15.7,10.59,16.69Z"/><path class="cls-6" d="m334.97,229.19c35.76,4.44,71.52,26.03,66.86,75.75-.23,2.4,2.52,3.9,4.37,2.37,19.15-15.72,77.74-74.16-67.2-103.42-6.3-1.27-12.57,2.37-14.6,8.51l-.03.1c-2.55,7.69,2.6,15.7,10.59,16.69Z"/><path class="cls-6" d="m315.04,229.32c.45-36.29,17.95-74.46,67.88-75.28,2.42-.04,3.59-2.95,1.87-4.64-17.75-17.44-82.33-69.67-95.34,78.66-.57,6.45,3.75,12.32,10.08,13.68l.1.02c7.93,1.7,15.31-4.33,15.41-12.44Z"/><path class="cls-6" d="m318.91,253.25c-.45-36.29-17.95-74.46-67.88-75.28-2.42-.04-3.59-2.95-1.87-4.64,17.75-17.44,82.33-69.67,95.34,78.66.57,6.45-3.75,12.32-10.08,13.68l-.1.02c-7.93,1.7-15.31-4.33-15.41-12.44Z"/><path class="cls-4" d="m405.28,364.35s-.05,23.17,16.34,24.15l16.4.99s-20.88,24.55-36.54,23.14"/><circle class="cls-7" cx="320.57" cy="397.96" r="29.71"/><circle class="cls-7" cx="475.67" cy="397.96" r="19.65"/><path class="cls-6" d="m330.81,294.01c0-4.57,13.48,11.73,30.11,11.73s30.11-16.3,30.11-11.73-13.48,28.27-30.11,28.27-30.11-23.7-30.11-28.27Z"/><path class="cls-6" d="m489.58,321.47c0,4.57-13.48-11.73-30.11-11.73s-30.11,16.3-30.11,11.73,13.48-28.27,30.11-28.27,30.11,23.7,30.11,28.27Z"/><path class="cls-3" d="m437.34,432.21s-26.67,41-50.43,0"/><path class="cls-2" d="m333.12,341.92s37.57,25.39,66.91,2.47"/><path class="cls-6" d="m493.85,341.38c0,9.32-15.02,16.88-33.55,16.88s-33.55-7.56-33.55-16.88,15.58-17.39,34.11-17.39,32.99,8.07,32.99,17.39Z"/><path class="cls-8" d="m493.85,344.12c0,7.81-15.02,14.14-33.55,14.14s-33.55-6.33-33.55-14.14,15.58-14.57,34.11-14.57,32.99,6.76,32.99,14.57Z"/><circle class="cls-6" cx="472.39" cy="341.34" r="15.39"/></svg>