<?xml version="1.0" encoding="UTF-8"?><svg id="Layer_1" xmlns="http://www.w3.org/2000/svg" xmlns:xlink="http://www.w3.org/1999/xlink" viewBox="0 0 610.1 761.72"><defs><style>.cls-1{clip-path:url(#clippath);}.cls-2,.cls-3,.cls-4,.cls-5,.cls-6,.cls-7,.cls-8,.cls-9,.cls-10,.cls-11{fill:none;}.cls-2,.cls-12,.cls-13,.cls-14,.cls-15,.cls-16,.cls-17,.cls-18,.cls-19,.cls-20{stroke-width:0px;}.cls-3{stroke-width:5.72px;}.cls-3,.cls-5,.cls-10,.cls-11{stroke:#25092f;stroke-miterlimit:10;}.cls-4{stroke-width:3.8px;}.cls-4,.cls-6,.cls-7,.cls-8,.cls-9{stroke:#272d12;stroke-miterlimit:10;}.cls-5{stroke-width:4px;}.cls-6{stroke-width:3.98px;}.cls-7{stroke-width:4px;}.cls-8{stroke-width:5.75px;}.cls-9{stroke-width:2.12px;}.cls-10{stroke-width:4.75px;}.cls-11{stroke-width:2.73px;}.cls-12{fill:#6d5fa6;}.cls-13{fill:#31194d;}.cls-14{fill:#272d12;}.cls-15{fill:#25092f;}.cls-16{fill:#d1ffaf;}.cls-17{fill:#d2e098;}.cls-18{fill:#bbc322;}.cls-19{fill:#b698e0;}.cls-20{fill:#fff;}</style><clipPath id="clippath"><rect class="cls-2" x="4.13" y="5.15" width="601.85" height="751.41"/></clipPath></defs><g id="Group_17"><g class="cls-1"><g id="Group_16"><path id="Path_517" class="cls-13" d="m85.18,756.57h294.24c37.29.06,69.78-25.39,78.66-61.6L603.58,105.59c10.72-43.44-15.8-87.35-59.24-98.08-6.35-1.57-12.87-2.36-19.42-2.36H230.68c-37.29-.06-69.78,25.39-78.66,61.6L6.53,656.13c-10.72,43.44,15.8,87.35,59.24,98.08,6.35,1.57,12.88,2.36,19.42,2.36M524.92,23.81c34.44,0,62.37,27.92,62.37,62.37,0,5.04-.61,10.06-1.82,14.95l-145.49,589.37c-6.84,27.88-31.85,47.46-60.55,47.42H85.18c-34.44,0-62.37-27.92-62.37-62.37,0-5.04.61-10.06,1.82-14.95L170.13,71.23c6.84-27.88,31.85-47.46,60.55-47.42h294.24Z"/><path id="Path_518" class="cls-13" d="m125.36,652.63h249.14c31.54,0,58.86-20.69,66.45-50.32l123.19-481.02c4.98-19.39.66-40-11.71-55.74-13.13-16.86-33.37-26.65-54.74-26.47h-249.14c-31.53,0-58.86,20.69-66.45,50.32l-123.19,481.02c-4.98,19.39-.66,40,11.71,55.74,13.13,16.86,33.37,26.64,54.74,26.47M497.68,54.58c16.58-.16,32.28,7.41,42.49,20.47,9.41,11.97,12.71,27.64,8.93,42.39l-123.19,481.02c-5.83,22.76-26.98,38.66-51.42,38.66H125.36c-16.58.16-32.28-7.41-42.49-20.47-9.41-11.97-12.71-27.64-8.93-42.39L197.12,93.24c5.83-22.76,26.98-38.66,51.42-38.66h249.14Z"/><path id="Path_519" class="cls-13" d="m196.6,725.02h42.18c15.06-.01,27.26-12.22,27.27-27.27v-5.97c-.01-15.06-12.22-27.26-27.27-27.27h-42.18c-15.06.01-27.26,12.22-27.27,27.27v5.97c.02,15.06,12.22,27.26,27.27,27.27m42.18-42.47c5.09,0,9.22,4.13,9.23,9.23v5.97c0,5.09-4.13,9.22-9.23,9.23h-42.18c-5.09,0-9.22-4.13-9.23-9.23v-5.97c0-5.09,4.13-9.22,9.23-9.23h42.18Z"/><path id="Path_1074" class="cls-16" d="m217.69,57.16l297.82-10.36,23.05,18.84,20.73,27.64-2.8,21.99-126.4,497.51-15.72,15.9-19.94,16.67H114.14l-17.18-11.95-20.37-11.93-11.35-29.85v-20.15L194.64,73.51l23.05-16.35Z"/><path id="Path_520" class="cls-15" d="m250.03,131.85c1.75-1.32,3.47-2.67,5.26-3.94,3.72-2.64,7.45-5.26,11.4-7.56,5.4-3.15,11.06-5.84,16.92-8.03,8.78-3.21,17.85-5.58,27.08-7.09.85-.15,1.09-.41.71-1.24-.65-1.42-1.27-2.86-1.78-4.34-.22-.8-1.02-1.29-1.83-1.12-3.82.1-7.64.41-11.43.93-11.09,1.66-21.91,4.75-32.2,9.19-6.94,2.92-13.64,6.39-20.04,10.37-.37.25-.69.56-.95.93-2.01,2.61-3.81,5.35-5.55,8.14-6.33,10.3-11.89,21.06-16.64,32.18-5.65,13.2-10.43,26.75-14.31,40.58-2.36,8.28-4.4,16.65-6.17,25.07-1.24,5.89-2.34,11.81-3.31,17.76-.64,3.93-1.22,7.87-1.79,11.81-.12.82.13,1.66.68,2.28,4.29,5.52,9.11,10.6,14.41,15.16,3.75,3.22,7.72,6.18,11.87,8.87,5.62,3.65,11.54,6.81,17.69,9.45,8.17,3.53,16.69,6.22,25.41,8.03,2.92.65,5.88,1.13,8.86,1.43.6.09,1.21-.15,1.58-.63,3.35-3.89,6.72-7.76,10.11-11.62.56-.64.41-.92-.3-1.24-5.79-2.54-11.38-5.49-16.75-8.82-7.7-4.79-14.86-10.39-21.36-16.71-2.4-2.34-4.7-4.77-6.92-7.27-1.94-2.2-3.76-4.52-5.43-6.93,1.06.88,2.11,1.77,3.17,2.64,10.89,8.99,23,16.38,35.98,21.95,10.36,4.42,21.14,7.79,32.18,10.04,4.77.99,9.59,1.74,14.42,2.43,6.93.99,13.9,1.43,20.87,1.78,5.31.27,10.63.18,15.95-.04,8.35-.33,16.67-1.25,24.89-2.74,5.68-1.05,11.29-2.42,16.82-4.1,10.45-3.17,20.51-7.48,30.02-12.85,2.52-1.42,4.97-2.96,7.54-4.36-.54.55-1.07,1.12-1.64,1.65-15.07,14.2-33.37,24.51-53.32,30.04q-1.85.52-.79,2.16c2.57,4,5.15,7.99,7.69,12,.37.68,1.08,1.09,1.85,1.08,5.1.15,10.2-.09,15.27-.72,12.77-1.36,25.26-4.66,37.04-9.78,8.34-3.64,16.18-8.33,23.33-13.97,2.78-2.21,5.4-4.57,8-6.97.49-.42.77-1.04.75-1.68,0-3.03.08-6.05.03-9.08-.07-4.14-.24-8.28-.37-12.42-.16-5.26-.53-10.5-.94-15.74-.98-12.37-2.59-24.68-4.84-36.88-2.47-13.59-5.9-26.99-10.27-40.1-2.84-8.67-6.3-17.13-10.35-25.3-.85-1.67-2.06-3.14-3.53-4.3-6.95-5.66-14.42-10.66-22.31-14.93-8.44-4.59-17.37-8.22-26.61-10.85-3.13-.89-6.31-1.57-9.5-2.19-.72-.24-1.5.12-1.79.82-.72,1.35-1.55,2.64-2.33,3.96-.62,1.05-.62,1.06.51,1.41,7.35,2.27,14.49,5.16,21.36,8.63,8.24,4.23,15.96,9.4,23,15.41,3.97,3.36,7.69,6.99,11.36,10.67.13.13.32.21.4.42-.38.06-.77-.06-1.05-.33-7.09-4.25-14.19-8.46-21.56-12.2-7.53-3.85-15.32-7.16-23.32-9.91-5.56-1.88-11.21-3.48-16.93-4.78-4.19-.96-8.42-1.75-12.68-2.38-4.32-.64-8.67-1.05-13-1.57-4.42-.53-8.84-.68-13.26-.83-12.05-.48-24.11.28-36.01,2.25-11.76,2.06-23.29,5.26-34.43,9.55-5.28,2-10.49,4.18-15.71,6.32-.32.13-.64.25-.97.37-.04-.07-.09-.14-.13-.2m131.59,61.59c6.59.35,12.61,3.82,16.23,9.33,4.28,6.1,5.82,13.7,4.24,20.98-1.45,7.59-5.2,13.74-11.97,17.74-4.91,3.05-10.93,3.72-16.39,1.81-6.96-2.33-11.36-7.37-13.94-14.04-1.74-4.55-2.23-9.49-1.43-14.29.67-4.86,2.67-9.45,5.77-13.25,4.66-5.65,10.59-8.64,17.49-8.28m-106.32,18.56c.46-5.95,1.99-10.76,5.08-14.93,4.87-6.58,11.21-10.3,19.68-9.5,5.95.55,11.33,3.73,14.68,8.67,4.3,5.87,6.03,13.23,4.79,20.4-.84,6.79-4.34,12.98-9.72,17.21-4.05,3.32-9.26,4.9-14.47,4.38-5.35-.47-10.29-3.07-13.71-7.21-4.53-5.26-6.81-12.09-6.35-19.02"/></g></g></g><g id="Group_15"><g id="Group_14"><path id="Path_99" class="cls-14" d="m277.13,476.33c2.53,11.5,10.21,19.34,17.15,17.51s10.52-12.63,7.99-24.13-3.97-24-10.91-22.17-16.76,17.29-14.23,28.79"/><path id="Path_100" class="cls-14" d="m276.13,467.98c2.53,11.5,10.21,19.34,17.15,17.51s10.52-12.63,7.99-24.13-3.97-24-10.91-22.17-16.76,17.29-14.23,28.79"/><path id="Path_101" class="cls-14" d="m406.03,512.88l2.19-50.49-29.51,31.06,14.76,22.47,12.56-3.05Z"/><path id="Path_102" class="cls-14" d="m403.15,521.06s-14.05-7.7-16.7-5.13l-7.73-47.37,29.51-6.17-5.08,58.67Z"/><path id="Path_313" class="cls-17" d="m279.88,514.04c8.55-43.19,20.5-63.5,58.38-63.5s47.7,23.83,49.58,61.94c1.9-.83,11.56-6.42,13.71-6.42,9.75,0,13.55,8.87,13.55,20.46s-3.06,15.01-13.55,21.53c-4.08,2.54-8.48.22-11.86-4.19-9.37,21.96-30.21,36.86-54.02,38.61-41.61,2.99-64.04-26.81-55.79-68.44"/><path id="Path_314" class="cls-7" d="m279.88,514.04c8.55-43.19,20.5-63.5,58.38-63.5s47.7,23.83,49.58,61.94c1.9-.83,11.56-6.42,13.71-6.42,9.75,0,13.55,8.87,13.55,20.46s-3.06,15.01-13.55,21.53c-4.08,2.54-8.48.22-11.86-4.19-9.37,21.96-30.21,36.86-54.02,38.61-41.61,2.99-64.04-26.81-55.79-68.44Z"/><path id="Path_348" class="cls-14" d="m337.43,510.13c0,5.18,6.01,9.38,13.42,9.38s13.42-4.2,13.42-9.38-6.23-9.66-13.64-9.66-13.19,4.48-13.19,9.66"/><path id="Path_349" class="cls-20" d="m337.43,510.13c-.25,5.59,6.01,9.38,13.42,9.38s13.42-3.2,13.42-8.9c0-4.34-6.23-7.05-13.64-7.05s-13,2.24-13.19,6.57"/><path id="Path_350" class="cls-6" d="m329.89,519.28s-25.48,11.06-3.33,22.13"/><path id="Path_351" class="cls-14" d="m334.52,493.48c0,3.39,7.31-2.86,16.32-2.86s16.32,6.24,16.32,2.86-7.31-11.52-16.32-11.52-16.32,8.14-16.32,11.52"/><path id="Path_352" class="cls-14" d="m288.9,494.42c0,3.39,6.68-2.86,14.92-2.86s14.92,6.24,14.92,2.86-6.68-11.52-14.92-11.52-14.92,8.14-14.92,11.52"/><path id="Path_353" class="cls-18" d="m345.42,541.4c0,8.38,6.8,15.18,15.18,15.18s15.18-6.8,15.18-15.18-6.8-15.18-15.18-15.18h0c-8.38,0-15.18,6.8-15.18,15.18"/><path id="Path_354" class="cls-18" d="m286.28,539.25c0,6.52,4.83,11.81,10.79,11.81s10.79-5.29,10.79-11.81-4.83-11.81-10.79-11.81-10.79,5.29-10.79,11.81"/><path id="Path_355" class="cls-9" d="m397.09,513.52s19.46,38.7.95,23.45,7.03-4.57,7.03-4.57"/><path id="Path_356" class="cls-14" d="m385.79,454.59c-7.58,8.58-9.26,19.49-3.74,24.36,5.52,4.87,16.13,1.87,23.72-6.71s10.8-19.36,5.28-24.23-17.68-2-25.26,6.58"/><path id="Path_357" class="cls-14" d="m387.9,483.33c8.58,7.58,19.49,9.26,24.36,3.74s1.87-16.13-6.71-23.72-19.36-10.8-24.23-5.28c-4.87,5.52-2,17.68,6.58,25.26"/><path id="Path_358" class="cls-14" d="m368.63,448.69c-4.17,10.67-1.98,21.48,4.87,24.16s15.79-3.8,19.96-14.46,3.19-22.08-3.67-24.76-16.99,4.39-21.16,15.06"/><path id="Path_359" class="cls-14" d="m354.83,447.52c.87,11.42,7.52,20.22,14.86,19.66s12.59-10.27,11.72-21.68-5.93-21.52-13.27-20.96-14.18,11.56-13.31,22.98"/><path id="Path_360" class="cls-14" d="m337.31,451.09c5.12,10.24,14.61,15.87,21.19,12.58s7.77-14.26,2.65-24.5-14.22-16.41-20.81-13.12-8.16,14.8-3.03,25.05"/><path id="Path_361" class="cls-14" d="m321.21,452.55c6.45,9.46,16.61,13.77,22.69,9.62s5.78-15.18-.67-24.64-15.81-15.8-21.9-11.65-6.58,17.2-.13,26.66"/><path id="Path_362" class="cls-14" d="m297.53,448.59c2.77,11.5,11.17,19.34,18.76,17.51s11.5-12.63,8.74-24.13-9.7-18.64-17.29-16.81-12.98,11.93-10.21,23.43"/><path id="Path_363" class="cls-14" d="m280.35,458.03c2.77,11.5,11.17,19.34,18.76,17.51s11.5-12.63,8.74-24.13-4.34-24-11.93-22.17-18.33,17.29-15.56,28.79"/><path id="Path_364" class="cls-14" d="m373.65,473.87c0,2.9,2.25,4.2,5.15,4.2,2.9,0,5.26-2.34,5.27-5.24,0-2.9-2.34-5.26-5.24-5.27h-.03c-2.9,0-5.15,3.41-5.15,6.31"/><path id="Path_365" class="cls-14" d="m365.88,471.79c0,2.9,2.25,4.2,5.15,4.2,2.9,0,5.26-2.34,5.27-5.24,0-2.9-2.34-5.26-5.24-5.27h-.03c-2.9,0-5.15,3.41-5.15,6.32"/><path id="Path_366" class="cls-14" d="m357.74,466.51c0,3.29,2.55,4.76,5.84,4.76,3.29-.01,5.95-2.69,5.94-5.98-.01-3.28-2.66-5.93-5.94-5.94-3.29,0-5.84,3.87-5.84,7.16"/><path id="Path_367" class="cls-14" d="m366.25,473.84c0,8.52,6.59,12.31,15.11,12.31s15.42-6.9,15.42-15.42-6.9-15.42-15.42-15.42-15.11,10.01-15.11,18.53"/><path id="Path_368" class="cls-14" d="m342.67,468.42c0,8.52,6.59,12.31,15.11,12.31s15.42-6.9,15.42-15.42-6.9-15.42-15.42-15.42-15.11,10.01-15.11,18.53"/><path id="Path_369" class="cls-14" d="m326.57,462.46c0,8.52,6.59,12.31,15.11,12.31s15.42-6.9,15.42-15.42-6.9-15.42-15.42-15.42-15.11,10.01-15.11,18.53"/><path id="Path_370" class="cls-14" d="m340.25,464.95c0,3.29,2.55,4.76,5.84,4.76,3.29-.01,5.95-2.69,5.94-5.98-.01-3.28-2.66-5.93-5.94-5.94-3.29,0-5.84,3.87-5.84,7.16"/><path id="Path_371" class="cls-14" d="m330.42,464.95c0,3.29,2.55,4.76,5.84,4.76,3.29.01,5.97-2.65,5.98-5.94.01-3.29-2.65-5.97-5.94-5.98h-.04c-3.29,0-5.84,3.87-5.84,7.16"/><path id="Path_372" class="cls-14" d="m311.51,465.8c0,5.64,6.22,8.15,14.27,8.15s14.56-4.57,14.56-10.21-6.52-10.21-14.56-10.21-14.27,6.63-14.27,12.26"/><path id="Path_373" class="cls-14" d="m298.32,468.42c0,5.64,5.69,8.15,13.04,8.15s13.31-4.57,13.31-10.21-5.96-10.21-13.31-10.21-13.04,6.63-13.04,12.26"/><path id="Path_374" class="cls-14" d="m338.71,509.18c0,4.11,3.33,7.44,7.43,7.44s7.44-3.33,7.44-7.43-3.33-7.44-7.43-7.44h0c-4.11,0-7.43,3.33-7.44,7.43"/><path id="Path_375" class="cls-4" d="m315.46,509.29s-7.95,9.65-24.76,0"/><path id="Path_376" class="cls-8" d="m313.62,556.86s10.67,16.4,20.17,0"/></g><g id="Group_13"><path id="Path_500" class="cls-15" d="m167.94,464.46c-8.99,8.73-19.05,21.73-19.35,36.35-.05,4.74,3.76,8.62,8.5,8.67,1.05.01,2.09-.17,3.07-.53l17.68-6.46c3.51-1.28,5.79-4.68,5.65-8.42l-.92-23.78c-.19-4.75-4.19-8.45-8.94-8.27-2.13.08-4.16.96-5.68,2.45"/><path id="Path_501" class="cls-15" d="m177.43,420.91c1.28,26.08,1.8,77.54-11.87,100.94-3.67,6.18-1.64,14.17,4.54,17.84.89.53,1.84.95,2.82,1.25,12.23,3.72,25.96,8.61,34.47,13.84,15.21,9.35,46.36-43.57,56.36-61.53,2.01-3.61,2.18-7.96.46-11.72l-28.28-61.76c-1.83-4.01-5.58-6.81-9.94-7.45l-33.72-4.91c-7.1-1.03-13.69,3.88-14.72,10.98-.12.83-.16,1.67-.12,2.51"/><path id="Path_502" class="cls-19" d="m308.72,472.89c17.42-50.59,3.83-53.17-24.67-79.83-11.82-11.06-79.76-20.46-93.24,27.67-1.65-2.81-3.75-4.6-6.22-4.98-7.98-1.24-28.5,8.49-31.34,26.71-2.84,18.22,13.08,38.01,21.06,39.25,3.83.6,7.83-2.26,11.28-7.41,13.21,44.93,21.67,62.23,49.04,71.66,22.39,7.71,56.67-22.48,74.09-73.07"/><path id="Path_503" class="cls-5" d="m308.72,472.89c17.42-50.59,3.83-53.17-24.67-79.83-11.82-11.06-79.76-20.46-93.24,27.67-1.65-2.81-3.75-4.6-6.22-4.98-7.98-1.24-28.5,8.49-31.34,26.71-2.84,18.22,13.08,38.01,21.06,39.25,3.83.6,7.83-2.26,11.28-7.41,13.21,44.93,21.67,62.23,49.04,71.66,22.39,7.71,56.67-22.48,74.08-73.07Z"/><path id="Path_504" class="cls-11" d="m186.2,427.61s-46.71,36.66-12.78,26.57-7.86-8.08-7.86-8.08"/><path id="Path_505" class="cls-15" d="m302.61,464.05c-2.18,4.89-10.37,5.94-18.27,2.34-7.91-3.6-12.55-10.49-10.37-15.38,2.18-4.89,10.2-4.92,18.11-1.32,7.91,3.6,12.72,9.47,10.53,14.36"/><path id="Path_506" class="cls-20" d="m301.97,465.5c-1.83,4.1-9.72,4.5-17.63.9-7.91-3.6-12.84-9.85-11.01-13.94,1.83-4.1,9.54-3.44,17.45.16,7.91,3.6,13.02,8.78,11.19,12.88"/><path id="Path_507" class="cls-15" d="m286.44,460.12c-1.22,3.79.87,7.84,4.65,9.06,3.82,1.11,7.81-1.09,8.92-4.91,1.22-3.79-.87-7.84-4.65-9.06-3.82-1.11-7.81,1.09-8.92,4.91"/><path id="Path_508" class="cls-15" d="m264.71,383.67s-57.57,25.23-71.89,77.93c0,0,10.33-95.21,62.83-87.55,52.49,7.66,9.07,9.63,9.07,9.63"/><path id="Path_509" class="cls-5" d="m261.18,453.42l2.98,23.32c.35,2.79-1.62,5.35-4.42,5.7-.44.06-.88.05-1.31,0l-9.91-1.33"/><path id="Path_510" class="cls-15" d="m161.06,448.21l5.5-33.26c.09-.54.26-1.07.49-1.57l30.8-47.65c.63-1.39,1.83-2.45,3.28-2.9l45.63-10.32c1.22-.36,2.53-.15,3.57.58l38.11,17.8c.5.36,1.07.59,1.68.7l29.74,11.72c2.64.44,4.22,3.29,3.44,6.22l-1.93,65.9c-1.39,5.23-8.04,5.52-9.07.4l-5.52-30.51c-.33-2.08-2.1-3.63-4.21-3.68l-20.28,7.3c-1.43,0-2.75-.74-3.51-1.95l-20.24-23.51c-2.8-4.32-9.27-.98-8.52,4.4h0c.69,4.97-16.55,6.46-19.69,3l-6.49-18.06c-2.48-2.75-6.95-1.19-7.95,2.77l-9.13,36.06c-1.4,5.55-8.56,5.54-9.16-.02l-.12-1.07c-.46-4.22-5.15-5.64-7.94-2.4l-20.58,23.98c-3.27,3.81-8.72,1.08-7.89-3.95"/><path id="Path_511" class="cls-12" d="m231.51,475.26c-2.59,7.52-10.78,11.52-18.3,8.93-7.52-2.59-11.52-10.78-8.93-18.3s10.78-11.52,18.3-8.93c0,0,0,0,0,0,7.52,2.59,11.52,10.78,8.93,18.3h0"/><path id="Path_512" class="cls-12" d="m292.15,496.14c-2.59,7.52-10.78,11.52-18.3,8.93-7.52-2.59-11.52-10.78-8.93-18.3,2.59-7.52,10.78-11.52,18.3-8.93,0,0,0,0,0,0,7.52,2.59,11.52,10.78,8.93,18.3h0"/><path id="Path_513" class="cls-15" d="m251.54,432.4c-.37,1.07-4.25-9.45-12.54-12.3-8.28-2.85-17.82,3.05-17.45,1.98s10.51-8.71,18.79-5.85,11.57,15.11,11.2,16.18"/><path id="Path_514" class="cls-15" d="m278.61,430.31c.37-1.07,4.25,9.45,12.54,12.31s17.82-3.05,17.46-1.98-10.51,8.71-18.79,5.85-11.57-15.11-11.2-16.18"/><path id="Path_515" class="cls-3" d="m225.15,497.39l5.27,11.62c4.92,10.84,13.54,15.08,23.81,11.71l11.3-3.7"/><path id="Path_516" class="cls-10" d="m219.15,431.72s9.07,24.03,32.06,11.04"/></g></g></svg>