<?xml version="1.0" encoding="UTF-8"?><svg id="Layer_1" xmlns="http://www.w3.org/2000/svg" viewBox="0 0 342.81 399.49"><defs><style>.cls-1{fill:#b698e0;}.cls-1,.cls-2{stroke-width:4px;}.cls-1,.cls-2,.cls-3,.cls-4{stroke:#360b3d;stroke-miterlimit:10;}.cls-2,.cls-3,.cls-4{fill:none;}.cls-3{stroke-width:2.38px;}.cls-5{fill:#360b3d;}.cls-5,.cls-6,.cls-7{stroke-width:0px;}.cls-6{fill:#8973b4;}.cls-7{fill:#fff;}.cls-4{stroke-width:2.73px;}</style></defs><path class="cls-5" d="m74.79,299.02c-.15,12.18-6.02,25-22.79,25.27-.81.01-1.21.99-.63,1.56,5.96,5.85,27.64,23.39,32.01-26.41.19-2.16-1.26-4.14-3.38-4.59h-.03c-2.66-.58-5.14,1.45-5.18,4.17Z"/><path class="cls-5" d="m77.08,317.15c7.33,7.13,11.74,18.12,2.21,28.48-.46.5-.1,1.31.59,1.28,7.01-.24,30.22-3.31,2.43-34.75-1.21-1.37-3.25-1.62-4.75-.59l-.02.02c-1.89,1.29-2.09,3.97-.45,5.56Z"/><path class="cls-5" d="m300.44,141.67c0,70.63-57.25,127.88-127.88,127.88s-127.88-57.25-127.88-127.88S111.96,38.66,182.58,38.66s117.86,32.39,117.86,103.01Z"/><path class="cls-5" d="m44.68,141.67l5.27,61.19s19.44,123.23,60.81,148.34c0,0,33.75-17.84,22.31,4.44"/><path class="cls-1" d="m181.88,92.94c-74.91,0-101.55,52.56-103.62,120.37-12.07-8.58-26.62-12.5-40.34-9.58-25.74,5.47-38.78,32.9-29.12,61.27,9.66,28.37,38.36,46.94,64.1,41.48,5.58-1.18,10.55-3.4,14.84-6.43,19.51,45.7,104.96,120.62,189.8,84.57,29.15-12.38,39.99-42.12,55.6-141.83,24.71-157.85-130.39-149.84-151.26-149.84Z"/><path class="cls-4" d="m70.23,218.87s-66.5,102.9-7.08,60.43c59.43-42.48-20.75-10.49-20.75-10.49"/><path class="cls-5" d="m84.74,210.76l17.98,16.22,42.29-74.18c4.51-7.92,13.83-11.69,22.53-9.13l65.65,19.32c3.91,1.15,8.07,1.05,11.91-.29l42.43-14.76c8.02-2.79,16.91-.08,22.04,6.73l24.26,32.16s43.72-124.62-117.87-151.45S84.74,210.76,84.74,210.76Z"/><path class="cls-5" d="m214.88,89.71c35.76,4.44,71.52,26.03,66.86,75.75-.23,2.4,2.52,3.9,4.37,2.37,19.15-15.72,77.74-74.16-67.2-103.42-6.3-1.27-12.57,2.37-14.6,8.51l-.03.1c-2.55,7.69,2.6,15.7,10.59,16.69Z"/><path class="cls-5" d="m73.02,118.24c35.76,4.44,71.52,26.03,66.86,75.75-.23,2.4,2.52,3.9,4.37,2.37,19.15-15.72,77.74-74.16-67.2-103.42-6.3-1.27-12.57,2.37-14.6,8.51l-.03.1c-2.55,7.69,2.6,15.7,10.59,16.69Z"/><path class="cls-5" d="m162.98,106.14c35.76,4.44,71.52,26.03,66.86,75.75-.23,2.4,2.52,3.9,4.37,2.37,19.15-15.72,77.74-74.16-67.2-103.42-6.3-1.27-12.57,2.37-14.6,8.51l-.03.1c-2.55,7.69,2.6,15.7,10.59,16.69Z"/><path class="cls-5" d="m143.05,106.27c.45-36.29,17.95-74.46,67.88-75.28,2.42-.04,3.59-2.95,1.87-4.64-17.75-17.44-82.33-69.67-95.34,78.66-.57,6.45,3.75,12.32,10.08,13.68l.1.02c7.93,1.7,15.31-4.33,15.41-12.44Z"/><path class="cls-5" d="m146.91,130.2c-.45-36.29-17.95-74.46-67.88-75.28-2.42-.04-3.59-2.95-1.87-4.64,17.75-17.44,82.33-69.67,95.34,78.66.57,6.45-3.75,12.32-10.08,13.68l-.1.02c-7.93,1.7-15.31-4.33-15.41-12.44Z"/><path class="cls-5" d="m220.86,224.84c0,9.32-15.02,16.88-33.55,16.88s-33.55-7.56-33.55-16.88,15.58-17.39,34.11-17.39,32.99,8.07,32.99,17.39Z"/><path class="cls-7" d="m220.86,227.58c0,7.81-15.02,14.14-33.55,14.14s-33.55-6.33-33.55-14.14,15.58-14.57,34.11-14.57,32.99,6.76,32.99,14.57Z"/><circle class="cls-5" cx="179.13" cy="225.07" r="15.39"/><path class="cls-3" d="m233.29,241.3s-.05,23.17,16.34,24.15l16.4.99s-20.88,24.55-36.54,23.14"/><circle class="cls-6" cx="148.58" cy="274.91" r="29.71"/><circle class="cls-6" cx="303.68" cy="274.91" r="19.65"/><path class="cls-5" d="m250.48,225.32c0,9.32,15.02,16.88,33.55,16.88,18.53,0,33.55-7.56,33.55-16.88,0-9.32-15.58-17.39-34.11-17.39s-32.99,8.07-32.99,17.39Z"/><path class="cls-7" d="m250.48,228.06c0,7.81,15.02,14.14,33.55,14.14,18.53,0,33.55-6.33,33.55-14.14,0-7.81-15.58-14.57-34.11-14.57-18.53,0-32.99,6.76-32.99,14.57Z"/><circle class="cls-5" cx="275.85" cy="225.55" r="15.39"/><path class="cls-5" d="m227.54,198.42c0,4.57-17.29-6.73-38.61-6.73s-38.61,11.3-38.61,6.73,17.29-23.27,38.61-23.27,38.61,18.7,38.61,23.27Z"/><path class="cls-5" d="m332.8,198.42c0,4.57-17.29-6.73-38.61-6.73s-38.61,11.3-38.61,6.73,17.29-23.27,38.61-23.27,38.61,18.7,38.61,23.27Z"/><path class="cls-2" d="m196.74,314.2l17.94,9.82c11.01,6.03,24.28,6.27,35.5.64l20.86-10.47"/></svg>