<?xml version="1.0" encoding="UTF-8"?><svg id="Layer_1" xmlns="http://www.w3.org/2000/svg" xmlns:xlink="http://www.w3.org/1999/xlink" viewBox="0 0 1404.16 874.63"><defs><style>.cls-1{stroke-width:3.65px;}.cls-1,.cls-2,.cls-3,.cls-4,.cls-5,.cls-6,.cls-7,.cls-8,.cls-9,.cls-10,.cls-11,.cls-12,.cls-13,.cls-14,.cls-15,.cls-16,.cls-17{fill:none;}.cls-1,.cls-2,.cls-5,.cls-6,.cls-7,.cls-8,.cls-14,.cls-17{stroke:#25092f;}.cls-1,.cls-6,.cls-7,.cls-17{stroke-miterlimit:10;}.cls-2{stroke-width:3.02px;}.cls-2,.cls-5,.cls-8,.cls-14{stroke-miterlimit:10;}.cls-18{clip-path:url(#clippath);}.cls-3,.cls-19,.cls-20,.cls-21,.cls-22,.cls-23,.cls-24,.cls-25,.cls-26,.cls-27{stroke-width:0px;}.cls-4{stroke-width:4.68px;}.cls-4,.cls-9,.cls-10,.cls-11,.cls-12,.cls-13,.cls-15,.cls-16{stroke:#272d12;}.cls-4,.cls-12,.cls-13{stroke-miterlimit:10;}.cls-5{stroke-width:4.69px;}.cls-6{stroke-width:2.5px;}.cls-7{stroke-width:5.22px;}.cls-8{stroke-width:5.08px;}.cls-9{stroke-width:5.19px;}.cls-9,.cls-10,.cls-11,.cls-15,.cls-16{stroke-miterlimit:10;}.cls-10{stroke-width:7.5px;}.cls-11{stroke-width:5.22px;}.cls-12{stroke-width:2.95px;}.cls-13{stroke-width:4.44px;}.cls-28{isolation:isolate;}.cls-14{stroke-width:3.47px;}.cls-15{stroke-width:4.96px;}.cls-19{fill:#8434d5;}.cls-20{fill:#6d5fa6;}.cls-21{fill:#272d12;}.cls-22{fill:#25092f;}.cls-23{fill:#d2e098;}.cls-24{fill:#bbc322;}.cls-25{fill:#b698e0;}.cls-26{fill:#fff;}.cls-27{fill:#fefbc1;}.cls-16{stroke-width:2.77px;}.cls-17{stroke-width:4.34px;}</style><clipPath id="clippath"><rect class="cls-3" x="132.23" y="129.21" width="243.34" height="200.77" transform="translate(-71.54 335.73) rotate(-60.18)"/></clipPath></defs><g id="Group_13"><path id="Path_500" class="cls-22" d="m1053.54,806.2c2.89,13.02,4.24,30.47-4.04,43.65-2.73,4.25-8.38,5.48-12.63,2.75-.94-.6-1.76-1.37-2.42-2.27l-11.95-16.09c-2.37-3.2-2.41-7.56-.1-10.8l14.72-20.62c2.95-4.12,8.67-5.07,12.79-2.13,1.85,1.32,3.14,3.28,3.63,5.5"/><path id="Path_501" class="cls-22" d="m1070.56,761.9c-16.38,22.46-46.94,67.94-48.46,96.76-.35,7.65-6.83,13.56-14.48,13.22-1.1-.05-2.19-.23-3.24-.54-13.06-3.84-28.13-7.52-38.76-7.84-19-.57-15.78-65.87-14.17-87.7.32-4.39,2.72-8.36,6.45-10.69l61.28-38.42c3.98-2.49,8.94-2.8,13.19-.81l32.88,15.34c6.92,3.23,9.91,11.46,6.68,18.38-.38.81-.83,1.58-1.36,2.31"/><path id="Path_502" class="cls-25" d="m923.35,731.38c14.08-55.2,27.68-49.55,68.63-56.61,16.98-2.92,82.94,28.44,66.79,79.14,3.11-1.54,6.02-1.9,8.45-.79,7.82,3.56,20.39,24.22,12.26,42.09-8.13,17.87-33.87,26.17-41.69,22.61-3.75-1.71-5.64-6.59-5.7-13.19-38.03,32.25-55.67,42.7-85.53,35.08-24.43-6.23-37.28-53.14-23.2-108.34"/><path id="Path_503" class="cls-1" d="m923.35,731.38c14.08-55.2,27.68-49.55,68.63-56.61,16.98-2.92,82.94,28.44,66.79,79.14,3.11-1.54,6.02-1.9,8.45-.79,7.82,3.56,20.39,24.22,12.26,42.09-8.13,17.87-33.87,26.17-41.69,22.61-3.75-1.71-5.64-6.59-5.7-13.19-38.03,32.25-55.67,42.7-85.53,35.08-24.43-6.23-37.28-53.14-23.2-108.34Z"/><path id="Path_504" class="cls-6" d="m1058.84,762.73s20.12,59.93-4.17,31.11c-24.29-28.82,11.71-2.6,11.71-2.6"/><path id="Path_505" class="cls-22" d="m933.95,727.1c-.92,5.63,5.75,11.34,14.9,12.76,9.14,1.42,17.3-1.99,18.22-7.62.92-5.63-6.2-10.34-15.34-11.76-9.15-1.42-16.85.99-17.77,6.62"/><path id="Path_506" class="cls-26" d="m933.68,728.75c-.77,4.72,6.02,9.69,15.17,11.11,9.14,1.42,17.18-1.25,17.95-5.97.77-4.72-6.48-8.64-15.62-10.06-9.14-1.42-16.72.2-17.49,4.91"/><path id="Path_507" class="cls-22" d="m961.39,732.79c-1.13,4.08-5.35,6.47-9.44,5.34-4.05-1.25-6.31-5.54-5.07-9.59h0c1.13-4.08,5.35-6.47,9.44-5.34h0c4.05,1.25,6.31,5.54,5.06,9.59"/><path id="Path_508" class="cls-22" d="m1014.67,677.73s36.47,56.11,18.41,111.37c0,0,46.48-90.76-4.71-114.64-51.19-23.88-13.7,3.27-13.7,3.27"/><path id="Path_509" class="cls-1" d="m977.03,741.86l-16.29,19.01c-1.95,2.28-1.69,5.7.59,7.65.36.31.75.57,1.18.77l9.59,4.61"/><path id="Path_510" class="cls-22" d="m1069.16,795.76l14.55-32.8c.24-.54.4-1.1.48-1.69l.45-60.41c.25-1.61-.19-3.24-1.23-4.5l-34.56-35.86c-.87-1.03-2.17-1.61-3.52-1.57l-44.32-6.44c-.65.02-1.31-.1-1.9-.37l-33.31-6.96c-2.61-1.15-5.68.46-6.7,3.52l-36.82,59.78c-1.82,5.46,3.92,9.61,7.84,5.66l22.75-23.92c1.51-1.66,3.99-2.01,5.9-.82l13.78,18.36c1.27.83,2.89.95,4.27.31l31.75-9.08c5.02-2.21,8.82,4.55,5.01,8.9h0c-3.53,4.02,10.95,15.43,15.77,14.18l16.33-12.27c3.82-.99,6.88,3.01,5.46,7.12l-12.96,37.42c-1.99,5.76,4.38,9.93,8.16,5.34l.73-.89c2.88-3.49,7.88-2,8.46,2.51l4.29,33.37c.68,5.3,7.13,6.06,9.33,1.1"/><path id="Path_511" class="cls-20" d="m990.66,778.64c-2.09,8.2,2.86,16.55,11.06,18.64,8.2,2.09,16.55-2.86,18.64-11.06,2.09-8.2-2.86-16.55-11.06-18.64h0c-8.2-2.09-16.55,2.86-18.64,11.06"/><path id="Path_512" class="cls-20" d="m924.5,761.76c-2.09,8.2,2.86,16.55,11.06,18.64,8.2,2.09,16.55-2.86,18.64-11.06,2.09-8.2-2.86-16.55-11.06-18.64h0c-8.2-2.09-16.55,2.86-18.64,11.06"/><path id="Path_513" class="cls-22" d="m997.9,728.79c-.3,1.17,9.31-5.92,18.35-3.61,9.04,2.31,14.08,13.13,14.38,11.96s-4.26-13.89-13.3-16.19c-9.04-2.31-19.13,6.68-19.43,7.85"/><path id="Path_514" class="cls-22" d="m975.03,711.11c.3-1.17-9.31,5.92-18.35,3.61-9.04-2.31-14.08-13.13-14.38-11.96s4.26,13.89,13.3,16.2c9.04,2.31,19.13-6.68,19.43-7.85"/><path id="Path_515" class="cls-7" d="m983.38,802.05l-11.49,7.26c-10.71,6.77-20.86,5.5-28.04-3.5l-7.89-9.9"/><path id="Path_516" class="cls-17" d="m1027.11,747.12s-22.13,16.08-34.98-8.92"/></g><g id="Group_14"><path id="Path_99" class="cls-21" d="m309.07,597.56c2.14,26.38-9.2,48.29-25.32,48.94-16.12.65-30.93-20.22-33.06-46.61-2.14-26.38-7.28-54.2,8.84-54.84,16.12-.65,47.41,26.12,49.55,52.51"/><path id="Path_100" class="cls-21" d="m305.71,578.97c2.14,26.38-9.2,48.29-25.32,48.94s-30.93-20.22-33.06-46.61c-2.14-26.38-7.28-54.2,8.84-54.84,16.12-.64,47.41,26.12,49.55,52.51"/><path id="Path_101" class="cls-21" d="m56.11,761.05l-37.98-107.08,83.89,47.32-16.9,58.03-29.01,1.73Z"/><path id="Path_102" class="cls-21" d="m67.69,776.72s25.12-25.8,32.52-22.03l-14.59-106.9-67.49,6.18,49.55,122.75Z"/><path id="Path_313" class="cls-23" d="m328.01,680.43c-46.84-87.18-85.9-122.96-167.31-98-77.26,23.69-86.81,82.64-65.74,165.8-4.63-.54-29.09-6.18-33.69-4.77-20.96,6.42-23.27,27.99-15.63,52.91,7.64,24.92,16.47,30.24,43.3,37.34,10.45,2.77,18.37-5.12,22.74-16.82,34.6,41.02,89.2,59.31,141.53,47.4,91.39-20.99,119.97-99.82,74.82-183.86"/><path id="Path_314" class="cls-11" d="m328.01,680.43c-46.84-87.18-85.9-122.96-167.31-98-77.26,23.69-86.81,82.64-65.74,165.8-4.63-.54-29.09-6.18-33.69-4.77-20.96,6.42-23.27,27.99-15.63,52.91,7.64,24.92,16.47,30.24,43.3,37.34,10.45,2.77,18.37-5.12,22.74-16.82,34.6,41.02,89.2,59.31,141.53,47.4,91.39-20.99,119.96-99.82,74.81-183.86Z"/><path id="Path_348" class="cls-21" d="m201.75,709.93c3.41,11.13-6.73,24.11-22.66,28.99s-31.61-.18-35.02-11.31c-3.41-11.13,7.03-24.87,22.96-29.76,15.93-4.88,31.31.94,34.72,12.07"/><path id="Path_349" class="cls-26" d="m201.74,709.93c4.21,11.85-6.73,24.11-22.66,28.99-15.93,4.88-30.95,1.96-34.7-10.29-2.86-9.32,8.75-19.26,24.68-24.14,15.93-4.88,29.42-3.76,32.69,5.43"/><path id="Path_350" class="cls-9" d="m223.97,724.64s62.05,6.99,21.73,45.37"/><path id="Path_351" class="cls-21" d="m197.02,672.25c2.23,7.28-17.59-1.33-36.96,4.61-19.37,5.94-30.96,24.17-33.19,16.89-2.23-7.28,8.11-29.58,27.48-35.52,19.37-5.94,40.44,6.74,42.67,14.02"/><path id="Path_352" class="cls-21" d="m295.68,644.2c2.23,7.28-16.24-1.74-33.94,3.69-17.71,5.43-27.95,23.25-30.18,15.97-2.23-7.28,6.76-29.17,24.47-34.6,17.71-5.43,37.42,7.66,39.65,14.94"/><path id="Path_353" class="cls-24" d="m205.17,782.43c5.52,18.02-4.61,37.1-22.62,42.62-18.02,5.52-37.1-4.61-42.62-22.62-5.52-18.02,4.61-37.1,22.62-42.62h0c18.02-5.52,37.1,4.61,42.62,22.62"/><path id="Path_354" class="cls-24" d="m330.86,738.83c4.3,14.01-2.61,28.56-15.42,32.49-12.81,3.93-26.68-4.25-30.97-18.27-4.3-14.02,2.61-28.56,15.42-32.49s26.68,4.25,30.97,18.27"/><path id="Path_355" class="cls-16" d="m75.74,756.53s-16.32,95.99,13.41,51.02c29.72-44.97-18.13-5.18-18.13-5.18"/><path id="Path_356" class="cls-21" d="m61.21,622.45c21.95,13.45,32.74,35.79,24.09,49.89-8.65,14.11-33.44,14.65-55.39,1.2-21.95-13.45-35.96-34.5-27.33-48.6,8.64-14.11,36.67-15.94,58.62-2.49"/><path id="Path_357" class="cls-21" d="m75.61,685.59c-13.45,21.95-35.79,32.73-49.89,24.09-14.11-8.64-14.65-33.44-1.2-55.39,13.45-21.95,34.5-35.96,48.61-27.32,14.11,8.64,15.94,36.67,2.49,58.62"/><path id="Path_358" class="cls-21" d="m94.19,598.44c15.98,20.18,18.42,44.86,5.45,55.13-12.97,10.27-36.44,2.24-52.42-17.93-15.98-20.18-21.4-45.36-8.43-55.63,12.97-10.28,39.42-1.75,55.4,18.43"/><path id="Path_359" class="cls-21" d="m123.07,586.84c5.66,25.11-2.85,48.41-18.99,52.05s-33.82-13.77-39.47-38.88c-5.65-25.11-1.44-50.14,14.7-53.78s38.1,15.5,43.76,40.61"/><path id="Path_360" class="cls-21" d="m163.11,582.97c-4.26,25.39-20.95,43.74-37.26,41-16.32-2.74-26.09-25.54-21.83-50.92,4.26-25.38,19.76-44.65,36.07-41.91,16.32,2.74,27.28,26.45,23.02,51.83"/><path id="Path_361" class="cls-21" d="m198.66,575.49c-7.63,24.58-26.63,40.54-42.43,35.63-15.8-4.9-22.43-28.81-14.8-53.39,7.63-24.58,23.58-44.37,39.38-39.46,15.8,4.91,25.47,32.64,17.84,57.22"/><path id="Path_362" class="cls-21" d="m246.94,551.38c1.63,26.54-11.26,48.92-28.79,50-17.52,1.08-33.05-19.57-34.68-46.11s8.56-46.45,26.09-47.52c17.52-1.07,35.75,17.09,37.38,43.63"/><path id="Path_363" class="cls-21" d="m290.09,560.35c1.63,26.54-11.26,48.92-28.79,50-17.52,1.08-33.05-19.57-34.68-46.11-1.63-26.54-6.48-54.44,11.04-55.52,17.52-1.07,50.79,25.09,52.42,51.63"/><path id="Path_364" class="cls-21" d="m100,655.87c1.91,6.24-2.06,10.5-8.3,12.41-6.24,1.92-12.85-1.57-14.77-7.81-1.92-6.24,1.57-12.85,7.81-14.77h.04c6.24-1.92,13.31,3.93,15.23,10.17"/><path id="Path_365" class="cls-21" d="m115.34,646.29c1.91,6.24-2.06,10.5-8.3,12.41-6.21,2.01-12.87-1.4-14.88-7.61-2.01-6.21,1.4-12.87,7.61-14.88.11-.04.22-.07.34-.1,6.24-1.91,13.31,3.94,15.23,10.18"/><path id="Path_366" class="cls-21" d="m129.35,629.58c2.17,7.07-2.34,11.9-9.41,14.07-7.07,2.17-14.56-1.81-16.73-8.88-2.17-7.07,1.81-14.56,8.88-16.73,7.07-2.17,15.09,4.47,17.26,11.54"/><path id="Path_367" class="cls-21" d="m115.89,650.93c5.61,18.3-6.05,30.8-24.36,36.41-18.25,5.77-37.73-4.35-43.5-22.6-5.77-18.25,4.35-37.73,22.6-43.5.19-.06.39-.12.58-.18,18.3-5.61,39.06,11.56,44.67,29.86"/><path id="Path_368" class="cls-21" d="m163,623.75c5.61,18.3-6.05,30.8-24.36,36.41-18.25,5.77-37.73-4.35-43.5-22.6-5.77-18.25,4.35-37.73,22.6-43.5.19-.06.39-.12.58-.18,18.3-5.61,39.06,11.56,44.67,29.86"/><path id="Path_369" class="cls-21" d="m193.68,600.34c5.61,18.3-6.05,30.8-24.36,36.41-18.25,5.77-37.73-4.35-43.5-22.6-5.77-18.25,4.35-37.73,22.6-43.5.19-.06.39-.12.58-.18,18.3-5.61,39.06,11.56,44.67,29.86"/><path id="Path_370" class="cls-21" d="m165.91,614.69c2.17,7.07-2.34,11.9-9.41,14.07-7.07,2.17-14.56-1.81-16.73-8.88-2.17-7.07,1.81-14.56,8.88-16.73,7.07-2.17,15.09,4.47,17.26,11.54"/><path id="Path_371" class="cls-21" d="m187.03,608.21c2.17,7.07-2.34,11.9-9.41,14.07-7.07,2.17-14.56-1.81-16.73-8.88-2.17-7.07,1.81-14.56,8.88-16.73,7.07-2.17,15.09,4.47,17.26,11.54"/><path id="Path_372" class="cls-21" d="m228.25,597.59c3.71,12.12-8.01,21.62-25.3,26.92-17.29,5.3-34.31-.23-38.03-12.34-3.71-12.12,7.29-26.23,24.58-31.53,17.29-5.3,35.03,4.84,38.75,16.96"/><path id="Path_373" class="cls-21" d="m258.31,594.53c3.71,12.11-6.86,21.26-22.66,26.11s-31.62-1.05-35.34-13.17c-3.71-12.12,6.09-25.86,21.89-30.71,15.8-4.84,32.4,5.65,36.11,17.76"/><path id="Path_374" class="cls-21" d="m188.26,711.85c2.7,8.82-2.26,18.17-11.08,20.87-8.82,2.7-18.17-2.26-20.87-11.08-2.7-8.82,2.26-18.17,11.08-20.87,8.82-2.7,18.17,2.26,20.87,11.08h0"/><path id="Path_375" class="cls-15" d="m248.41,693.66s23.43,15.5,53.22-16.31"/><path id="Path_376" class="cls-10" d="m283.7,794.68s-12.12,42.27-43.35,13.29"/></g><g id="Group_70"><path id="Path_132" class="cls-22" d="m1339.44,323.05c8.07,16.06,24.15,29.26,46.56,18.79.67-.32,1.47-.03,1.79.64.15.32.17.69.05,1.02-4.12,11.61-21.55,48.88-59.52-14.34-1.65-2.75-1-6.3,1.52-8.28l.04-.03c2.76-2.15,6.73-1.65,8.88,1.11.26.34.49.7.68,1.09"/><path id="Path_133" class="cls-22" d="m1346.55,345.37c-5.11,14.2-3.86,31.61,15.47,39.2.58.22.87.87.65,1.45-.11.28-.32.51-.6.63-9.45,4.21-42.22,15.14-25.68-44.52.72-2.6,3.25-4.25,5.92-3.86h.04c2.9.44,4.9,3.15,4.46,6.05-.05.36-.14.71-.27,1.05"/><path id="Path_134" class="cls-22" d="m946,275.62c45.64,93.67,158.58,132.62,252.25,86.98,93.67-45.64,132.62-158.58,86.98-252.25-45.64-93.67-155.8-93.16-249.48-47.52-93.68,45.64-135.39,119.12-89.75,212.79"/><path id="Path_135" class="cls-22" d="m1276.13,91.69l32.55,84.56s53.84,176,15.2,236.05c0,0-56.3-1.86-26.73,20.31"/><path id="Path_136" class="cls-25" d="m1062.67,115.71c99.36-48.41,168.66,4.08,215.22,92.7,10.46-19.18,27.24-33.78,47.31-38.78,37.68-9.39,72.7,18.57,78.22,62.44,5.52,43.87-20.54,87.05-58.22,96.44-7.79,1.98-15.9,2.34-23.84,1.06,3.65,73.22-61.27,227.81-197.09,234.83-46.66,2.41-80.26-30.02-165.4-152.19-134.77-193.39,76.12-283,103.8-296.48"/><path id="Path_137" class="cls-8" d="m1062.67,115.71c99.36-48.41,168.66,4.08,215.22,92.7,10.46-19.18,27.24-33.78,47.31-38.78,37.68-9.39,72.7,18.57,78.22,62.44,5.52,43.87-20.54,87.05-58.22,96.44-7.79,1.98-15.9,2.34-23.84,1.06,3.65,73.22-61.27,227.81-197.09,234.83-46.66,2.41-80.26-30.02-165.4-152.19-134.77-193.39,76.12-283,103.8-296.48Z"/><path id="Path_138" class="cls-14" d="m1295.1,216.68s154.7,93.51,48.43,75.57c-106.27-17.94,20.74-27.32,20.74-27.32"/><path id="Path_139" class="cls-22" d="m1276.74,227.86l-13.36,33.14-104.03-71.07c-11.05-7.59-25.87-6.58-35.78,2.44l-74.59,68.06c-4.44,4.05-10.03,6.61-15.99,7.31l-65.82,7.84c-12.45,1.49-22.5,10.85-24.88,23.16l-11.39,58.33s-138.51-137.04,58.47-277.04c190.82-135.62,287.37,147.83,287.37,147.83"/><path id="Path_140" class="cls-22" d="m1023.96,147.44c-44.56,29-78.03,80.74-39.73,143.68,1.16,1.85.61,4.3-1.25,5.47-.9.57-1.99.75-3.02.5-35.55-8.48-151.04-48.13,22.29-180.6,7.56-5.76,18.24-4.97,24.87,1.85l.11.11c7.27,7.45,7.11,19.38-.34,26.65-.89.87-1.87,1.65-2.92,2.33"/><path id="Path_141" class="cls-22" d="m1229.66,91.76c-44.56,29-78.03,80.74-39.73,143.68,1.16,1.86.6,4.3-1.26,5.47-.9.56-1.98.74-3.01.5-35.56-8.48-151.04-48.13,22.29-180.59,7.56-5.76,18.24-4.97,24.87,1.86l.11.11c7.27,7.45,7.11,19.38-.34,26.65-.89.87-1.87,1.65-2.92,2.33"/><path id="Path_142" class="cls-22" d="m1102.9,134.63c-44.56,29-78.03,80.74-39.73,143.68,1.16,1.86.6,4.3-1.25,5.46-.9.56-1.98.74-3.01.5-35.56-8.47-151.04-48.13,22.29-180.59,7.56-5.76,18.24-4.97,24.87,1.85l.11.11c7.27,7.45,7.11,19.38-.34,26.65-.89.87-1.87,1.65-2.92,2.33"/><path id="Path_143" class="cls-22" d="m1131.88,126.96c-24.05-47.85-71.92-87.17-138.67-55.98-1.99.95-4.38.1-5.32-1.89-.45-.96-.51-2.05-.16-3.05,12.27-34.6,64.18-145.6,177.29,42.71,4.92,8.18,2.98,18.75-4.53,24.66l-.12.1c-8.22,6.39-20.06,4.91-26.45-3.3-.78-1.01-1.46-2.09-2.03-3.24"/><path id="Path_144" class="cls-22" d="m1142.21,161.19c-22.86-48.43-24.32-110.36,41.39-143.7,1.97-.99,2.78-3.38,1.79-5.36-.47-.95-1.3-1.67-2.31-2-34.81-11.66-154.22-39.2-75.63,165.94,3.41,8.92,12.93,13.91,22.21,11.63l.15-.04c10.1-2.53,16.23-12.77,13.7-22.86-.31-1.24-.75-2.45-1.3-3.6"/><path id="Path_145" class="cls-22" d="m1100.09,323.83c6.02,12.36,30.83,12.68,55.4.7,24.58-11.97,39.62-31.7,33.59-44.06-6.02-12.36-31.91-13-56.48-1.02s-38.54,32.02-32.52,44.38"/><path id="Path_146" class="cls-26" d="m1101.79,327.34c5.05,10.36,29.06,9.04,53.64-2.93,24.58-11.97,40.41-30.08,35.36-40.43-5.05-10.36-30.08-9.25-54.66,2.72-24.58,11.97-39.39,30.29-34.34,40.64"/><path id="Path_147" class="cls-22" d="m1121.76,313.1c5.49,11.27,19.08,15.96,30.35,10.47,11.27-5.49,15.96-19.08,10.47-30.35-5.49-11.27-19.08-15.96-30.35-10.47-11.27,5.49-15.96,19.08-10.47,30.35h0"/><path id="Path_148" class="cls-2" d="m1093.12,351.4s15.04,30.69-6.07,42.6l-21.11,11.91s43.56,19.07,63.42,7.07"/><path id="Path_149" class="cls-20" d="m1187.47,359.78c10.6,21.76,36.84,30.81,58.6,20.21,21.76-10.6,30.81-36.84,20.21-58.6-10.6-21.76-36.84-30.81-58.6-20.21h0c-21.76,10.6-30.81,36.84-20.21,58.6"/><path id="Path_150" class="cls-20" d="m995.21,453.75c7.01,14.39,24.36,20.38,38.76,13.36,14.39-7.01,20.38-24.36,13.36-38.76-7.01-14.39-24.36-20.38-38.76-13.36s-20.38,24.36-13.36,38.76h0"/><path id="Path_151" class="cls-22" d="m1061.09,343.58c6.02,12.36-9.02,32.09-33.6,44.06-24.58,11.97-49.38,11.66-55.4-.7s9.43-33.14,34.01-45.11c24.58-11.97,48.97-10.62,54.99,1.75"/><path id="Path_152" class="cls-26" d="m1062.8,347.09c5.05,10.36-10.79,28.46-35.36,40.43-24.58,11.97-48.59,13.28-53.64,2.93-5.05-10.36,11.25-29.39,35.83-41.37,24.58-11.97,48.12-12.35,53.17-1.99"/><path id="Path_153" class="cls-22" d="m1005.68,370.88c5.49,11.27,19.08,15.96,30.35,10.47,11.27-5.49,15.96-19.08,10.47-30.35-5.49-11.27-19.08-15.96-30.35-10.47-11.27,5.49-15.96,19.08-10.47,30.35h0"/><path id="Path_154" class="cls-22" d="m1086.44,289.68c2.95,6.05,10.3-24.27,32.35-35.01,22.05-10.75,50.46,2.16,47.51-3.9s-36.15-28.78-58.2-18.04c-22.05,10.75-24.62,50.89-21.66,56.95"/><path id="Path_155" class="cls-22" d="m955.73,353.36c2.95,6.05,10.3-24.27,32.35-35.01,22.05-10.75,50.46,2.16,47.51-3.9-2.95-6.06-36.15-28.78-58.2-18.04-22.05,10.75-24.62,50.89-21.66,56.95"/><path id="Path_162" class="cls-5" d="m1148.59,468.39l-1.7,1.25c-9.95,7.34-22.69,11.81-33.27,11.68h-.8c-26.36-.34-22.37-26.24,6.21-40.46.83-.42,1.67-.83,2.5-1.24,36.07-17.84,58.27,5.75,27.05,28.78Z"/></g><g id="Group_71"><g class="cls-18"><g id="Group_19"><path id="Path_521" class="cls-21" d="m224.18,191.03l16.97-20.89-28.17-25.04-29.01,56.14,2.07,1.96-4.03,8.69s20.02.38,21.31,4.82l11.37-14,10.99-5.58-1.49-6.12Z"/><path id="Path_522" class="cls-23" d="m295.74,165.52c-37.29-21.37-67.85-2.48-92.64,43.4-1.72-4.64-10.69-12.57-14.3-13.58-9.7-2.71-31.16,13.56-30.66,34.34.55,23.03.74,35.47,10.45,38.17,4.28,1.19,9.07-.87,13.58-5.26-3.18,33.92,6.47,59.51,30.26,80.91,33.66,30.27,57.87-10.5,97.87-63.73,36.07-48,24.72-91.74-14.56-114.25"/><path id="Path_523" class="cls-4" d="m295.74,165.52c-37.29-21.37-67.85-2.48-92.64,43.4-1.72-4.64-10.69-12.57-14.3-13.58-9.7-2.71-31.16,13.56-30.66,34.34.55,23.03.74,35.47,10.45,38.17,4.28,1.19,9.07-.87,13.58-5.26-3.18,33.92,6.47,59.51,30.26,80.91,33.66,30.27,57.87-10.5,97.87-63.73,36.07-48,24.72-91.74-14.56-114.25Z"/><path id="Path_524" class="cls-12" d="m183.17,202.4s-33.68,57.56-7.09,39.76c26.58-17.8-7.48-11-7.48-11"/><path id="Path_525" class="cls-21" d="m258.51,235.31c-3.16,4.83-13.39,3.7-22.86-2.5-9.46-6.2-14.57-15.14-11.42-19.96,3.15-4.82,13.86-3.78,23.32,2.42,9.46,6.2,14.11,15.22,10.95,20.04"/><path id="Path_526" class="cls-26" d="m258.51,235.31c-3.1,5.41-13.39,3.7-22.86-2.5-9.46-6.2-15.18-14.21-11.7-19.52,2.65-4.04,12.26-1.35,21.72,4.86,9.46,6.2,15.24,12.97,12.84,17.16"/><path id="Path_527" class="cls-21" d="m279.14,246.88c-2.44,5.25,3.7,13.75,13.7,18.98,10,5.23,20.08,5.22,22.52-.03,2.44-5.25-3.87-14.19-13.87-19.43-10-5.23-19.92-4.77-22.35.47"/><path id="Path_528" class="cls-26" d="m279.14,246.89c-2.96,5.49,3.7,13.75,13.7,18.98,10,5.23,19.61,6.24,22.3.46,2.04-4.4-5.1-11.54-15.1-16.78-10-5.23-18.6-6.92-20.9-2.66"/><path id="Path_529" class="cls-21" d="m246.78,227.01c-2.3,4.02-7.43,5.41-11.45,3.11-4.02-2.3-5.41-7.43-3.11-11.45,2.3-4.02,7.43-5.41,11.45-3.11h0c4.02,2.3,5.41,7.43,3.11,11.45"/><path id="Path_530" class="cls-21" d="m300.29,257.67c-2.3,4.02-7.43,5.41-11.45,3.11-4.02-2.3-5.41-7.43-3.11-11.45s7.43-5.41,11.45-3.11h0c4.02,2.3,5.41,7.43,3.11,11.45"/><path id="Path_531" class="cls-13" d="m265.17,247.22l.12,25.93c.01,2.64-1.99,4.86-4.62,5.11l-14.75-2.03"/><path id="Path_532" class="cls-13" d="m214.97,290.79l7.27,12.18c5.46,9.29,16.03,14.32,26.69,12.71l15.91-2.11"/><path id="Path_533" class="cls-21" d="m216.17,176.61l14.46,6.11c-.28,1.74.9,3.38,2.64,3.66.49.08.99.04,1.47-.11l38.77-12.18c1.68-.53,3.47.41,4,2.09.11.36.16.75.14,1.13l-1.95,36.57c0,.16,0,.31,0,.47l1.08,11.46c.17,1.76,1.72,3.04,3.48,2.88.84-.08,1.61-.49,2.15-1.13l26.25-31.46c1.13-1.35,3.14-1.54,4.5-.41.66.55,1.08,1.35,1.14,2.22l2.75,36.89c.04.48.18.95.42,1.36l11.98,20.68c.32.55.79.99,1.37,1.27l14.86,7.22c1.59.77,3.5.11,4.27-1.48.18-.36.28-.76.31-1.16l5.46-75.84c.08-1.06-.38-2.08-1.21-2.74l-21.02-16.55c-.41-.32-.73-.74-.94-1.22l-18.5-41.81c-.49-1.1-1.55-1.83-2.75-1.9l-40.99-2.21c-.44-.02-.86-.13-1.25-.33l-24.61-12.25c-1.05-.52-2.3-.43-3.26.25l-33.93,23.85-19.97,12.73c-1.49.95-1.92,2.92-.98,4.41.31.48.74.88,1.25,1.13l23.91,12.09c.79.4,1.72.45,2.55.15l7.98,8.07c2.29-.85-5.44,3.68-5.83,6.09"/><path id="Path_534" class="cls-24" d="m227.24,265.53c-5.21,9.09-16.81,12.24-25.9,7.03-9.09-5.21-12.24-16.81-7.03-25.9,5.21-9.09,16.81-12.24,25.9-7.03h0c9.09,5.21,12.24,16.81,7.03,25.9"/><path id="Path_535" class="cls-24" d="m289.12,304.31c-4.05,7.07-12.58,9.8-19.05,6.1-6.47-3.71-8.42-12.44-4.37-19.52,4.05-7.07,12.58-9.8,19.05-6.1,6.47,3.71,8.42,12.44,4.37,19.52"/><path id="Path_536" class="cls-21" d="m260.68,211.06c-.89,1.55-4.39-4.55-10.89-8.27s-13.53-3.66-12.64-5.21,9.36-4.13,15.86-.4c6.5,3.73,8.56,12.34,7.67,13.89"/><path id="Path_537" class="cls-21" d="m318.23,244.03c-.89,1.55-4.39-4.55-10.89-8.27-6.5-3.72-13.53-3.66-12.64-5.21s9.36-4.13,15.86-.4c6.5,3.73,8.56,12.34,7.67,13.89"/><path id="Path_538" class="cls-22" d="m208.24,240.94c-8.79,15.33-28.34,20.64-43.67,11.85-15.33-8.79-20.64-28.34-11.85-43.67,8.79-15.33,28.34-20.64,43.67-11.85,0,0,0,0,0,0,15.33,8.79,20.64,28.34,11.85,43.67"/><path id="Path_539" class="cls-22" d="m158.38,205.7l43.63,72.12,3.81-3.25-44.83-71.29-2.6,2.43Z"/><path id="Path_540" class="cls-22" d="m221.35,282.78c-3.07,5.35-11.85,6.07-19.63,1.62s-11.59-12.4-8.53-17.75c3.07-5.35,11.85-6.07,19.62-1.62,7.77,4.46,11.59,12.4,8.53,17.75"/><path id="Path_541" class="cls-22" d="m175.64,210.26l66.82-88.27,100.91,63.98,10.52,26.27-.94,13.09-15.88-31.83-93.87-59.95-47.7,71.05"/></g></g></g><g id="Group_101"><circle id="Ellipse_1" class="cls-19" cx="643.18" cy="529.2" r="284"/><g id="Friends_of_Dorothy" class="cls-28"><g class="cls-28"><path class="cls-27" d="m454.84,403.88h3.2v-13.76h-3.2v-20.32h57.92v21.28h-24.16v-3.36h-4.8v6.08h19.36v9.76h-19.36v2.72h6.96v17.92h-35.92v-20.32Z"/><path class="cls-27" d="m515.56,403.88h2.96v-4.32h-2.96v-20.32h26v1.44c-1.2,1.84-1.68,4.24-1.92,8.16h.32c1.92-6.88,6.88-10.88,14.24-10.88,7.76,0,12.48,4.48,12.48,11.84s-4.48,11.92-11.92,11.92c-5.68,0-9.76-2.72-11.44-7.76h-.32v9.92h6.72v20.32h-34.16v-20.32Z"/><path class="cls-27" d="m568.35,403.88h2.96v-4.32h-2.96v-10.56c2.96,2.64,8.48,4.32,14.64,4.32,4.72,0,8.96-.96,12.8-2.96v13.52h2.96v20.32h-30.4v-20.32Zm.72-25.28c0-7.36,5.36-12.08,13.84-12.08s13.84,4.72,13.84,12.08-5.36,12.08-13.84,12.08-13.84-4.72-13.84-12.08Z"/><path class="cls-27" d="m600.75,401.72c0-15.44,10-23.76,28.32-23.76,16.8,0,25.68,6.96,25.68,19.76,0,2.16-.24,4.4-.56,6h-28.16c.32,2.96,2.64,3.84,9.44,3.84,5.84,0,11.2-.64,16-1.84l1.92,16.24c-5.52,2.32-12.72,3.52-20.96,3.52-21.12,0-31.68-7.92-31.68-23.76Zm30.96-3.68v-.72c0-3.6-.88-5.2-2.88-5.2s-2.88,1.6-2.88,5.2v.72h5.76Z"/><path class="cls-27" d="m657.07,403.88h2.96v-4.32h-2.96v-20.32h26.64v8.08h.32c3.2-6.32,8.32-9.36,15.68-9.36,10,0,15.2,5.52,15.2,15.84v10.08h2.96v20.32h-27.44v-24.8c0-1.84-.96-2.88-2.64-2.88-1.44,0-2.56.8-3.28,2.4v4.96h2.96v20.32h-30.4v-20.32Z"/><path class="cls-27" d="m719.87,401.8c0-15.2,6.32-23.84,17.04-23.84,6.56,0,11.2,3.28,13.68,9.36h.32v-2.8c0-3.68-1.76-7.04-4.16-8.16v-8.56h28.64v36.08h2.96v20.32h-26.64v-8.08h-.32c-2.56,6.16-7.36,9.36-14.16,9.36-11.12,0-17.36-8.56-17.36-23.68Zm31.04,3.84v-7.92c-.56-.96-1.52-1.52-2.64-1.52-1.92,0-2.8,1.68-2.8,5.52s.88,5.52,2.8,5.52c1.12,0,2.08-.56,2.64-1.6Z"/><path class="cls-27" d="m803.47,420.6h-.32l-.48,3.6h-21.44v-19.28h4c3.92,2.48,8.96,4,15.04,4,2.4,0,4-.24,5.68-.88v-.32c-18.64-2.48-25.6-7.84-25.6-16.32,0-7.92,6.16-13.44,15.92-13.44,5.28,0,9.6,1.6,13.12,4.88h.32l.48-3.6h21.44v17.68h-4c-3.6-2-8.72-3.2-13.92-3.2-2.32,0-3.76.24-5.28.72v.32c19.68,4,25.68,7.44,25.68,16.24s-6.24,14.48-16.88,14.48c-5.28,0-9.2-1.36-13.76-4.88Z"/></g><g class="cls-28"><path class="cls-27" d="m593.32,513.72c0-15.2,10.24-23.76,28.48-23.76s28.48,8.56,28.48,23.76-10.24,23.76-28.48,23.76-28.48-8.56-28.48-23.76Zm31.36,0c0-4-.88-5.52-2.88-5.52s-2.88,1.52-2.88,5.52.88,5.52,2.88,5.52,2.88-1.52,2.88-5.52Z"/><path class="cls-27" d="m652.68,515.88h2.96v-4.32h-2.96v-20.32h6.72c3.52-8,10.72-12.72,19.76-12.72s14.24,4.56,14.24,12.4c0,7.28-4.64,11.76-12,11.76-5.04,0-8.88-2.08-11.28-5.92l-.32.08c1.2,5.36,5.68,8.48,12.48,8.48,4.56,0,8.64-1.44,11.36-4.16v10.4h-13.52v4.32h6.72v20.32h-34.16v-20.32Z"/></g><g class="cls-28"><path class="cls-27" d="m446.04,627.88h3.2v-13.76h-3.2v-20.32h31.28c20.8,0,31.52,9.28,31.52,27.2s-10.72,27.2-31.52,27.2h-31.28v-20.32Zm29.52,0c4.24,0,5.92-1.92,5.92-6.88s-1.68-6.88-5.92-6.88h-.56v13.76h.56Z"/><path class="cls-27" d="m510.36,625.72c0-15.2,10.24-23.76,28.48-23.76s28.48,8.56,28.48,23.76-10.24,23.76-28.48,23.76-28.48-8.56-28.48-23.76Zm31.36,0c0-4-.88-5.52-2.88-5.52s-2.88,1.52-2.88,5.52.88,5.52,2.88,5.52,2.88-1.52,2.88-5.52Z"/><path class="cls-27" d="m569.72,627.88h2.96v-4.32h-2.96v-20.32h26v1.44c-1.2,1.84-1.68,4.24-1.92,8.16h.32c1.92-6.88,6.88-10.88,14.24-10.88,7.76,0,12.48,4.48,12.48,11.84s-4.48,11.92-11.92,11.92c-5.68,0-9.76-2.72-11.44-7.76h-.32v9.92h6.72v20.32h-34.16v-20.32Z"/><path class="cls-27" d="m620.92,625.72c0-15.2,10.24-23.76,28.48-23.76s28.48,8.56,28.48,23.76-10.24,23.76-28.48,23.76-28.48-8.56-28.48-23.76Zm31.36,0c0-4-.88-5.52-2.88-5.52s-2.88,1.52-2.88,5.52.88,5.52,2.88,5.52,2.88-1.52,2.88-5.52Z"/><path class="cls-27" d="m682.83,635.72v-12.16h-2.96v-17.92c4.72-.8,7.36-4.32,8.96-11.84h18.24v9.44h8.32v20.32h-8.32v2.32c0,2.08,1.12,2.72,3.76,2.72.88,0,2.16-.08,3.76-.48l1.2,19.6c-3.52,1.12-8.4,1.76-14.08,1.76-13.76,0-18.88-3.68-18.88-13.76Z"/><path class="cls-27" d="m718.51,627.88h2.96v-15.76h-2.96v-20.32h27.44v19.52h.32c3.12-6.48,7.92-9.36,15.04-9.36,9.76,0,15.04,5.52,15.04,15.84v10.08h2.96v20.32h-27.44v-24.8c0-1.84-.96-2.88-2.64-2.88-1.44,0-2.56.8-3.28,2.4v4.96h2.96v20.32h-30.4v-20.32Z"/><path class="cls-27" d="m785.07,645.8c0-7.04,4.48-11.52,11.44-11.52,6.48,0,10.64,4,11.04,10.56h.32c.24-.64.4-1.84.4-2.96,0-6.24-4.96-10.48-12.4-10.48-3.68,0-7.12,1.04-9.28,2.8l-4.08-10.64h-2.96v-20.32h29.04v20.32l3.2,8.56h.32l3.2-8.56h-3.76v-20.32h30.24v20.32h-2.96l-7.92,20.88c-4.16,10.88-11.2,16.08-24.4,16.08s-21.44-5.44-21.44-14.72Z"/></g></g></g></svg>