<?xml version="1.0" encoding="UTF-8"?><svg id="Layer_1" xmlns="http://www.w3.org/2000/svg" viewBox="0 0 1728.9 1071.97"><defs><style>.cls-1{stroke:#360b3d;stroke-miterlimit:10;stroke-width:2.73px;}.cls-1,.cls-2{fill:#674a9e;}.cls-2{stroke-width:0px;}</style></defs><path class="cls-2" d="m1591.09-150.57h0c-8.89-5.59-20.63-2.92-26.23,5.97l-51.64,82.1c-13.17,17.46-15.36,4.84-15.64-2.32v-4.04s.01,0,.01,0h0l.32-102.45c.03-10.5-8.46-19.04-18.96-19.08-10.5-.03-19.04,8.46-19.08,18.96l-.34,109.3-50.69,6.79,5.84,95.28,44.84,20.25,48.03,9.69,47.98-88.86-18.9-9.29,60.43-96.06c5.59-8.89,2.92-20.63-5.97-26.23Z"/><rect class="cls-1" x="1406.73" y="-66.67" width="25.04" height="74.83" rx="11.15" ry="11.15" transform="translate(-.08 -4.39) rotate(.18)"/><rect class="cls-1" x="1433.13" y="-72.14" width="25.04" height="74.83" rx="11.15" ry="11.15" transform="translate(-.1 -4.47) rotate(.18)"/><rect class="cls-1" x="1483.51" y="-58.85" width="38" height="123.2" rx="18.71" ry="18.71" transform="translate(1293.63 -1485.17) rotate(81.9)"/></svg>