<?xml version="1.0" encoding="UTF-8"?><svg id="Layer_1" xmlns="http://www.w3.org/2000/svg" viewBox="0 0 2264.67 1968.06"><defs><style>.cls-1{fill:#47225e;}.cls-1,.cls-2{stroke-width:0px;}.cls-2{fill:#360b3d;}</style></defs><path class="cls-1" d="m1497.54,1679.89h-520.52c-66.09,0-123.31-44.81-139.15-108.98l-257.38-1042.61c-10.63-43.07-1.04-87.8,26.31-122.72,27.35-34.93,68.48-54.96,112.84-54.96h520.52c66.09,0,123.31,44.81,139.15,108.98l257.38,1042.62c10.63,43.07,1.04,87.8-26.31,122.72-27.35,34.93-68.48,54.96-112.84,54.96ZM719.63,383.62c-34.15,0-65.81,15.42-86.86,42.3-21.05,26.88-28.44,61.32-20.25,94.47l257.38,1042.61c12.19,49.39,56.24,83.89,107.11,83.89h520.52c34.15,0,65.81-15.42,86.86-42.3,21.05-26.88,28.44-61.32,20.25-94.47l-257.38-1042.62c-12.19-49.39-56.24-83.89-107.11-83.89h-520.52Z"/><path class="cls-1" d="m1426.47,1496.02h-440.73c-55.79,0-104.12-36.61-117.54-89.02l-217.92-850.94c-8.8-34.37-1.25-70.32,20.71-98.61,23.1-29.76,58.39-46.83,96.84-46.83h440.73c55.79,0,104.12,36.6,117.54,89.02l217.92,850.94c8.8,34.37,1.25,70.32-20.71,98.61-23.1,29.76-58.39,46.83-96.84,46.83ZM767.81,438.05c-29.9,0-57.3,13.2-75.17,36.22-16.73,21.55-22.49,48.88-15.8,74.99l217.92,850.94c10.31,40.27,47.72,68.39,90.97,68.39h440.73c29.9,0,57.3-13.2,75.17-36.22,16.73-21.55,22.49-48.88,15.8-74.99l-217.92-850.94c-10.31-40.27-47.72-68.39-90.97-68.39h-440.73Z"/><path class="cls-1" d="m1300.44,1624.08h-74.61c-26.6,0-48.25-21.64-48.25-48.25v-10.57c0-26.6,21.64-48.25,48.25-48.25h74.61c26.6,0,48.25,21.64,48.25,48.25v10.57c0,26.6-21.64,48.25-48.25,48.25Zm-74.61-75.14c-9,0-16.32,7.32-16.32,16.32v10.57c0,9,7.32,16.32,16.32,16.32h74.61c9,0,16.32-7.32,16.32-16.32v-10.57c0-9-7.32-16.32-16.32-16.32h-74.61Z"/><path class="cls-2" d="m1260.76,795.87c-3.1-2.33-6.14-4.73-9.3-6.97-6.57-4.67-13.17-9.31-20.16-13.37-9.58-5.57-19.55-10.33-29.93-14.21-15.54-5.82-31.58-9.73-47.91-12.54-1.5-.26-1.93-.72-1.25-2.2,1.15-2.51,2.25-5.06,3.15-7.67.59-1.69,1.67-2.04,3.23-1.99,6.77.23,13.51.69,20.22,1.65,19.73,2.83,38.66,8.5,56.97,16.26,12.28,5.2,24.12,11.27,35.44,18.34.69.43,1.2,1.01,1.68,1.64,3.55,4.61,6.75,9.47,9.82,14.4,11.33,18.19,20.91,37.28,29.43,56.93,10.11,23.34,18.35,47.33,25.32,71.78,4.18,14.65,7.77,29.45,10.91,44.35,2.19,10.42,4.15,20.89,5.85,31.41,1.13,6.95,2.15,13.92,3.17,20.89.23,1.57-.23,2.78-1.2,4.03-7.62,9.77-16.09,18.75-25.49,26.82-6.64,5.7-13.65,10.93-21,15.69-9.97,6.46-20.41,12.06-31.32,16.72-14.51,6.2-29.46,11.06-44.95,14.21-5.19,1.06-10.39,2.08-15.68,2.53-1.18.1-2.01-.19-2.8-1.11-5.93-6.88-11.89-13.73-17.89-20.56-.99-1.13-.72-1.63.54-2.19,10.24-4.51,20.13-9.68,29.63-15.61,13.64-8.51,26.26-18.33,37.79-29.55,4.25-4.13,8.31-8.44,12.24-12.86,3.44-3.86,6.6-7.98,9.61-12.27-1.87,1.56-3.73,3.13-5.61,4.67-19.38,15.95-40.57,28.91-63.64,38.83-18.37,7.9-37.38,13.7-56.93,17.75-8.44,1.75-16.96,3.07-25.5,4.3-12.25,1.76-24.58,2.53-36.91,3.15-9.39.47-18.81.32-28.22-.08-14.79-.62-29.47-2.18-44.03-4.85-10.05-1.84-19.96-4.3-29.75-7.26-18.56-5.6-36.23-13.24-53.11-22.73-4.46-2.51-8.8-5.23-13.33-7.71.96.97,1.89,1.98,2.89,2.91,11.68,10.87,24.24,20.57,37.92,28.81,17.7,10.66,36.51,18.74,56.4,24.33q3.27.92,1.39,3.83c-4.55,7.07-9.12,14.13-13.61,21.24-.81,1.29-1.75,1.85-3.27,1.9-9.04.35-18.04-.25-27.01-1.26-22.69-2.57-44.61-8.09-65.54-17.31-14.77-6.51-28.59-14.65-41.26-24.72-4.91-3.9-9.55-8.09-14.16-12.33-.9-.83-1.33-1.77-1.33-2.97-.01-5.35-.14-10.71-.05-16.06.13-7.32.43-14.64.65-21.97.28-9.3.93-18.58,1.66-27.85,1.71-21.9,4.6-43.64,8.56-65.25,4.41-24.07,10.38-47.75,18.16-70.95,5.13-15.31,11.03-30.32,18.31-44.76,1.54-3.06,3.62-5.47,6.25-7.61,12.33-10.04,25.5-18.81,39.48-26.39,15-8.12,30.67-14.55,47.08-19.19,5.54-1.57,11.16-2.78,16.81-3.87,1.47-.28,2.43.06,3.18,1.45,1.28,2.39,2.74,4.67,4.12,7,1.1,1.85,1.1,1.87-.9,2.5-13,4.08-25.63,9.07-37.78,15.27-14.65,7.47-28.14,16.65-40.68,27.27-7.02,5.95-13.6,12.37-20.09,18.88-.24.24-.57.38-.71.74.84.21,1.33-.26,1.85-.58,12.54-7.52,25.1-14.97,38.15-21.59,13.35-6.78,27.06-12.71,41.25-17.53,9.84-3.35,19.83-6.14,29.95-8.45,7.42-1.69,14.9-3.1,22.43-4.21,7.64-1.13,15.33-1.86,22.99-2.78,7.81-.93,15.64-1.2,23.46-1.48,21.35-.76,42.61.4,63.7,3.98,20.88,3.54,41.11,9.41,60.9,16.89,9.35,3.53,18.55,7.4,27.8,11.18.57.23,1.14.44,1.71.66.08-.12.15-.24.23-.36Zm-232.79,108.95c-12.92,1.05-22.02,6.91-28.7,16.51-7.81,11.22-10.04,23.78-7.5,37.11,2.56,13.43,9.2,24.31,21.17,31.38,9.11,5.39,18.91,6.59,28.99,3.21,12.31-4.12,20.09-13.03,24.65-24.84,3.14-8.13,3.87-16.61,2.53-25.29-1.35-8.74-4.59-16.64-10.21-23.44-8.25-9.99-18.74-15.29-30.93-14.65Zm188.08,32.84c-.82-10.53-3.53-19.03-9-26.41-8.62-11.64-19.84-18.22-34.81-16.8-11.04,1.05-19.6,6.57-25.98,15.34-7.83,10.77-10.43,22.92-8.48,36.08,1.84,12.36,7.34,22.65,17.19,30.45,7.49,5.93,16.11,8.64,25.6,7.76,9.75-.9,17.9-5.34,24.25-12.76,8.62-10.07,11.88-21.93,11.23-33.65Z"/></svg>