<?xml version="1.0" encoding="UTF-8"?><svg id="Layer_1" xmlns="http://www.w3.org/2000/svg" viewBox="0 0 682.93 715.38"><defs><style>.cls-1{stroke-width:2.53px;}.cls-1,.cls-2,.cls-3{stroke:#303b19;stroke-miterlimit:10;}.cls-1,.cls-3{fill:none;}.cls-2{fill:#d4e6aa;stroke-width:4px;}.cls-3{stroke-width:3.8px;}.cls-4{fill:#bdce38;}.cls-4,.cls-5,.cls-6{stroke-width:0px;}.cls-5{fill:#303b19;}.cls-6{fill:#fff;}</style></defs><path class="cls-5" d="m233.28,286.64l8.67-53.11-73.78-15.43,5.48,126.24,5.55,1.35,1.65,19.09s35.12-19.24,41.76-12.82l5.81-35.59,13.52-20.6-8.67-9.13Z"/><path class="cls-2" d="m332.08,171.21c-85.96,0-120.19,63.17-117.58,167.41-7.59-6.34-31.04-11.18-38.32-9.33-19.53,4.96-40.58,54.5-19.05,90.06,23.86,39.41,36.55,60.8,56.08,55.85,8.6-2.18,14.88-10.53,18.33-22.63,28.21,62.01,70.4,96.82,132.96,110.28,88.5,19.04,89.97-75.77,106.44-207.88,14.85-119.15-48.34-183.77-138.87-183.77Z"/><path class="cls-1" d="m173.44,347.14s-1.2,133.35,27.23,76.04c28.43-57.31-23.92-11.64-23.92-11.64"/><path class="cls-5" d="m336.89,329.33c-.69,11.51-19.56,19.74-42.14,18.39-22.59-1.35-40.34-11.78-39.65-23.29s20.28-20.34,42.87-18.99c22.59,1.35,39.62,12.37,38.93,23.88Z"/><path class="cls-6" d="m336.89,329.33c0,12.47-19.56,19.74-42.14,18.39-22.59-1.35-40.47-9.56-39.71-22.23.58-9.64,19.93-14.53,42.52-13.18,22.59,1.35,39.34,7.35,39.34,17.01Z"/><circle class="cls-5" cx="312.68" cy="326.59" r="16.78"/><path class="cls-3" d="m360.29,343.37l25.99,44.87c2.65,4.57,1.37,10.41-2.94,13.46l-27.61,11.15"/><path class="cls-5" d="m205.06,269.57l31.16-3.77c1.67,4.45,7.44,5.57,10.66,2.09l55.15-59.67c3.02-3.27,8.38-2.52,10.39,1.46l32.98,65.39c.14.28.3.55.48.81l13.28,18.82c3.27,4.64,10.52,3.02,11.5-2.57l14.25-80.68c1-5.65,8.36-7.22,11.57-2.47l41.47,61.27c.54.8,1.25,1.46,2.09,1.95l41.36,23.97c1.1.64,2.37.93,3.64.85l32.96-2.25c4.51-.31,7.28-5.07,5.32-9.14l-65.95-137.02c-.92-1.91-2.72-3.24-4.82-3.55l-52.93-7.82c-1.03-.15-2.01-.55-2.85-1.17l-73.68-54.15c-1.94-1.42-4.51-1.64-6.65-.56l-73.31,36.92c-.78.39-1.63.62-2.5.67l-54.88,3.22c-2.34.14-4.41,1.54-5.41,3.67l-35.15,75.11-21.99,41.94c-2.3,4.38,1.05,9.6,5.99,9.34l53.51-2.8c1.77-.09,3.43-.92,4.57-2.28l21.86,6.04c3.14-3.75-5.79,11.79-4.07,16.37Z"/><circle class="cls-4" cx="274.73" cy="412.84" r="37.95"/><ellipse class="cls-4" cx="431.61" cy="418.61" rx="26.98" ry="29.52"/><path class="cls-5" d="m319.52,287.06c0,3.57-12.14-3.53-27.12-3.53s-27.12,7.1-27.12,3.53,12.14-16.47,27.12-16.47,27.12,12.9,27.12,16.47Z"/><path class="cls-5" d="m452.15,287.06c0,3.57-12.14-3.53-27.12-3.53s-27.12,7.1-27.12,3.53,12.14-16.47,27.12-16.47,27.12,12.9,27.12,16.47Z"/><path class="cls-3" d="m350.35,465.86l15.13-15.5c4.6-4.72,12.61-1.46,12.61,5.13v13.67l6.25-1.13c7.8-1.41,12,8.81,5.47,13.29l-13.04,8.96"/><path class="cls-3" d="m394.07,323.12s19.87,24.12,61.91,0"/></svg>