<?xml version="1.0" encoding="UTF-8"?><svg id="Layer_1" xmlns="http://www.w3.org/2000/svg" viewBox="0 0 648.03 735.33"><defs><style>.cls-1{stroke-width:2.53px;}.cls-1,.cls-2,.cls-3{fill:none;stroke:#272d12;stroke-miterlimit:10;}.cls-2{stroke-width:3.8px;}.cls-3{stroke-width:4px;}.cls-4{fill:#272d12;}.cls-4,.cls-5,.cls-6,.cls-7{stroke-width:0px;}.cls-5{fill:#d2e098;}.cls-6{fill:#bbc322;}.cls-7{fill:#fff;}</style></defs><g id="Group_12"><path id="Path_377" class="cls-4" d="m192.92,363.09l-11.81-87.06-122.56,11.12,68.82,194.49,9.31-.55,11.69,29.02s45.64-46.81,59.09-39.95l-7.92-58.34,11.28-38.62-17.9-10.11Z"/><path id="Path_378" class="cls-5" d="m292.08,135.71c-134.2,41.03-157.5,155.99-103.66,317.51-14.89-6.28-53.81-2.63-64.28,3.72-28.13,17.06-37.34,104.46,13.25,149.71,56.07,50.15,86.1,77.49,114.22,60.43,12.39-7.52,18.2-23.54,17.82-44.08,73.65,83.35,156.13,117.56,260.23,108.72,147.26-12.51,104.31-161.24,66.95-375.38-33.69-193.13-163.2-263.85-304.53-220.63"/><path id="Path_379" class="cls-3" d="m292.08,135.71c-134.2,41.03-157.5,155.99-103.66,317.51-14.89-6.28-53.81-2.63-64.28,3.72-28.13,17.06-37.34,104.46,13.25,149.71,56.07,50.15,86.1,77.49,114.22,60.43,12.39-7.52,18.2-23.54,17.82-44.08,73.65,83.35,156.13,117.56,260.23,108.72,147.26-12.51,104.31-161.24,66.95-375.38-33.69-193.12-163.2-263.84-304.53-220.63Z"/><path id="Path_380" class="cls-1" d="m128.38,486.12s61.78,208.78,78.81,105.73c17.03-103.05-42.91-6.76-42.91-6.76"/><path id="Path_381" class="cls-4" d="m375.07,380.28c4.42,18.3-21.11,40.16-57.02,48.83-35.91,8.67-68.6.87-73.02-17.43s21.96-41.43,57.87-50.11,67.76.41,72.18,18.7"/><path id="Path_382" class="cls-7" d="m375.06,380.28c5.96,19.47-21.11,40.16-57.02,48.83-35.91,8.67-67.76,4.39-72.62-15.75-3.7-15.33,24.18-32.2,60.1-40.87s64.92-7.31,69.54,7.78"/><path id="Path_383" class="cls-4" d="m448.69,357.05c7.05,17.52,40.99,21.91,75.79,9.79s57.31-36.14,50.26-53.67-42.43-22.51-77.24-10.39-55.87,36.74-48.81,54.27"/><path id="Path_384" class="cls-7" d="m448.69,357.05c6.46,19.32,40.99,21.91,75.79,9.79s58.67-32.78,50.9-52.06c-5.91-14.68-38.87-13.66-73.68-1.55s-58.03,28.84-53.02,43.82"/><path id="Path_385" class="cls-4" d="m362.15,379.56c4.42,14.47-3.72,29.78-18.19,34.21-14.47,4.42-29.78-3.72-34.21-18.19-4.42-14.47,3.72-29.78,18.18-34.2,14.47-4.42,29.79,3.72,34.21,18.19"/><path id="Path_386" class="cls-4" d="m563.86,317.89c4.42,14.47-3.72,29.78-18.19,34.21-14.47,4.42-29.78-3.72-34.21-18.19s3.72-29.78,18.19-34.21h0c14.47-4.42,29.78,3.72,34.21,18.19"/><path id="Path_387" class="cls-2" d="m418.3,391.03l62,57.64c6.32,5.87,7.11,15.59,1.83,22.41l-37.79,30.59"/><path id="Path_388" class="cls-4" d="m140.71,349.91l46.86-20.77c3.51,4.56,10.06,5.41,14.62,1.9,1.29-.99,2.32-2.27,3.03-3.73l57.62-119.49c2.5-5.18,8.73-7.36,13.91-4.86,1.12.54,2.14,1.28,3,2.18l82.7,86.35c.35.37.73.71,1.14,1.03l29.71,23.04c4.55,3.53,11.1,2.7,14.62-1.85,1.68-2.17,2.44-4.92,2.11-7.65l-16.26-132.76c-.7-5.71,3.36-10.91,9.08-11.61,2.8-.34,5.62.46,7.82,2.24l93.99,75.87c1.22.99,2.65,1.69,4.19,2.04l76.02,17.68c2.02.47,4.14.33,6.08-.41l50.39-19.24c5.38-2.05,8.07-8.08,6.02-13.46-.47-1.24-1.18-2.37-2.08-3.35L476.9,40.6c-2.35-2.54-5.8-3.75-9.22-3.24l-86.37,13.06c-1.68.25-3.4.09-5-.47L235.41.59c-3.7-1.3-7.82-.41-10.65,2.3l-96.83,92.63c-1.03.98-2.24,1.75-3.58,2.24l-84.15,31.23c-3.59,1.33-6.15,4.52-6.69,8.31l-19.02,134.05L.18,347.33c-1.07,5.66,2.66,11.11,8.31,12.17,1.84.35,3.73.19,5.49-.45l82.21-29.91c2.72-.99,4.91-3.07,6.04-5.74l37.02-1c3.1-7.36-3.41,21.18,1.47,27.5"/><path id="Path_389" class="cls-6" d="m377.12,522.23c10.01,32.72-8.41,67.36-41.13,77.37-32.72,10.01-67.36-8.41-77.37-41.13-10-32.72,8.41-67.36,41.13-77.37,32.72-10,67.36,8.41,77.37,41.14"/><path id="Path_390" class="cls-6" d="m607.69,461.58c7.78,25.45-4.77,51.86-28.04,58.97s-48.44-7.76-56.22-33.21,4.77-51.86,28.04-58.97,48.44,7.76,56.22,33.21"/><path id="Path_391" class="cls-2" d="m541.56,583.34c5.06,16.56-6.24,34.7-25.25,40.51s-38.52-2.9-43.58-19.46,6.24-34.7,25.25-40.51c19.01-5.81,38.52,2.9,43.58,19.46Z"/><path id="Path_392" class="cls-4" d="m327.76,322.58c1.71,5.58-20.64.29-44.03,7.44-23.39,7.15-38.96,24.04-40.67,18.45s11.1-31.52,34.49-38.67c23.39-7.15,48.51,7.19,50.21,12.77"/><path id="Path_393" class="cls-4" d="m534.84,259.27c1.71,5.58-20.64.29-44.03,7.44s-38.96,24.04-40.67,18.45,11.1-31.52,34.49-38.67,48.51,7.19,50.21,12.77"/></g></svg>