<?xml version="1.0" encoding="UTF-8"?><svg id="Layer_1" xmlns="http://www.w3.org/2000/svg" viewBox="0 0 1682.56 260.57"><defs><style>.cls-1{fill:#d4e6aa;stroke-width:0px;}</style></defs><path class="cls-1" d="m336.45,136.81h3.6v-15.48h-3.6v-22.86h65.16v23.94h-27.18v-3.78h-5.4v6.84h21.78v10.98h-21.78v3.06h7.83v20.16h-40.41v-22.86Z"/><path class="cls-1" d="m404.76,136.81h3.33v-4.86h-3.33v-22.86h29.25v1.62c-1.35,2.07-1.89,4.77-2.16,9.18h.36c2.16-7.74,7.74-12.24,16.02-12.24,8.73,0,14.04,5.04,14.04,13.32s-5.04,13.41-13.41,13.41c-6.39,0-10.98-3.06-12.87-8.73h-.36v11.16h7.56v22.86h-38.43v-22.86Z"/><path class="cls-1" d="m464.16,136.81h3.33v-4.86h-3.33v-11.88c3.33,2.97,9.54,4.86,16.47,4.86,5.31,0,10.08-1.08,14.4-3.33v15.21h3.33v22.86h-34.2v-22.86Zm.81-28.44c0-8.28,6.03-13.59,15.57-13.59s15.57,5.31,15.57,13.59-6.03,13.59-15.57,13.59-15.57-5.31-15.57-13.59Z"/><path class="cls-1" d="m500.61,134.38c0-17.37,11.25-26.73,31.86-26.73,18.9,0,28.89,7.83,28.89,22.23,0,2.43-.27,4.95-.63,6.75h-31.68c.36,3.33,2.97,4.32,10.62,4.32,6.57,0,12.6-.72,18-2.07l2.16,18.27c-6.21,2.61-14.31,3.96-23.58,3.96-23.76,0-35.64-8.91-35.64-26.73Zm34.83-4.14v-.81c0-4.05-.99-5.85-3.24-5.85s-3.24,1.8-3.24,5.85v.81h6.48Z"/><path class="cls-1" d="m563.97,136.81h3.33v-4.86h-3.33v-22.86h29.97v9.09h.36c3.6-7.11,9.36-10.53,17.64-10.53,11.25,0,17.1,6.21,17.1,17.82v11.34h3.33v22.86h-30.87v-27.9c0-2.07-1.08-3.24-2.97-3.24-1.62,0-2.88.9-3.69,2.7v5.58h3.33v22.86h-34.2v-22.86Z"/><path class="cls-1" d="m634.62,134.47c0-17.1,7.11-26.82,19.17-26.82,7.38,0,12.6,3.69,15.39,10.53h.36v-3.15c0-4.14-1.98-7.92-4.68-9.18v-9.63h32.22v40.59h3.33v22.86h-29.97v-9.09h-.36c-2.88,6.93-8.28,10.53-15.93,10.53-12.51,0-19.53-9.63-19.53-26.64Zm34.92,4.32v-8.91c-.63-1.08-1.71-1.71-2.97-1.71-2.16,0-3.15,1.89-3.15,6.21s.99,6.21,3.15,6.21c1.26,0,2.34-.63,2.97-1.8Z"/><path class="cls-1" d="m728.67,155.62h-.36l-.54,4.05h-24.12v-21.69h4.5c4.41,2.79,10.08,4.5,16.92,4.5,2.7,0,4.5-.27,6.39-.99v-.36c-20.97-2.79-28.8-8.82-28.8-18.36,0-8.91,6.93-15.12,17.91-15.12,5.94,0,10.8,1.8,14.76,5.49h.36l.54-4.05h24.12v19.89h-4.5c-4.05-2.25-9.81-3.6-15.66-3.6-2.61,0-4.23.27-5.94.81v.36c22.14,4.5,28.89,8.37,28.89,18.27s-7.02,16.29-18.99,16.29c-5.94,0-10.35-1.53-15.48-5.49Z"/><path class="cls-1" d="m780.24,134.38c0-17.1,11.52-26.73,32.04-26.73s32.04,9.63,32.04,26.73-11.52,26.73-32.04,26.73-32.04-9.63-32.04-26.73Zm35.28,0c0-4.5-.99-6.21-3.24-6.21s-3.24,1.71-3.24,6.21.99,6.21,3.24,6.21,3.24-1.71,3.24-6.21Z"/><path class="cls-1" d="m847.02,136.81h3.33v-4.86h-3.33v-22.86h7.56c3.96-9,12.06-14.31,22.23-14.31s16.02,5.13,16.02,13.95c0,8.19-5.22,13.23-13.5,13.23-5.67,0-9.99-2.34-12.69-6.66l-.36.09c1.35,6.03,6.39,9.54,14.04,9.54,5.13,0,9.72-1.62,12.78-4.68v11.7h-15.21v4.86h7.56v22.86h-38.43v-22.86Z"/><path class="cls-1" d="m912.44,136.81h3.6v-15.48h-3.6v-22.86h35.19c23.4,0,35.46,10.44,35.46,30.6s-12.06,30.6-35.46,30.6h-35.19v-22.86Zm33.21,0c4.77,0,6.66-2.16,6.66-7.74s-1.89-7.74-6.66-7.74h-.63v15.48h.63Z"/><path class="cls-1" d="m984.8,134.38c0-17.1,11.52-26.73,32.04-26.73s32.04,9.63,32.04,26.73-11.52,26.73-32.04,26.73-32.04-9.63-32.04-26.73Zm35.28,0c0-4.5-.99-6.21-3.24-6.21s-3.24,1.71-3.24,6.21.99,6.21,3.24,6.21,3.24-1.71,3.24-6.21Z"/><path class="cls-1" d="m1051.58,136.81h3.33v-4.86h-3.33v-22.86h29.25v1.62c-1.35,2.07-1.89,4.77-2.16,9.18h.36c2.16-7.74,7.74-12.24,16.02-12.24,8.73,0,14.04,5.04,14.04,13.32s-5.04,13.41-13.41,13.41c-6.39,0-10.98-3.06-12.87-8.73h-.36v11.16h7.56v22.86h-38.43v-22.86Z"/><path class="cls-1" d="m1109.18,134.38c0-17.1,11.52-26.73,32.04-26.73s32.04,9.63,32.04,26.73-11.52,26.73-32.04,26.73-32.04-9.63-32.04-26.73Zm35.28,0c0-4.5-.99-6.21-3.24-6.21s-3.24,1.71-3.24,6.21.99,6.21,3.24,6.21,3.24-1.71,3.24-6.21Z"/><path class="cls-1" d="m1178.84,145.63v-13.68h-3.33v-20.16c5.31-.9,8.28-4.86,10.08-13.32h20.52v10.62h9.36v22.86h-9.36v2.61c0,2.34,1.26,3.06,4.23,3.06.99,0,2.43-.09,4.23-.54l1.35,22.05c-3.96,1.26-9.45,1.98-15.84,1.98-15.48,0-21.24-4.14-21.24-15.48Z"/><path class="cls-1" d="m1218.98,136.81h3.33v-17.73h-3.33v-22.86h30.87v21.96h.36c3.51-7.29,8.91-10.53,16.92-10.53,10.98,0,16.92,6.21,16.92,17.82v11.34h3.33v22.86h-30.87v-27.9c0-2.07-1.08-3.24-2.97-3.24-1.62,0-2.88.9-3.69,2.7v5.58h3.33v22.86h-34.2v-22.86Z"/><path class="cls-1" d="m1293.86,156.97c0-7.92,5.04-12.96,12.87-12.96,7.29,0,11.97,4.5,12.42,11.88h.36c.27-.72.45-2.07.45-3.33,0-7.02-5.58-11.79-13.95-11.79-4.14,0-8.01,1.17-10.44,3.15l-4.59-11.97h-3.33v-22.86h32.67v22.86l3.6,9.63h.36l3.6-9.63h-4.23v-22.86h34.02v22.86h-3.33l-8.91,23.49c-4.68,12.24-12.6,18.09-27.45,18.09s-24.12-6.12-24.12-16.56Z"/></svg>