<?xml version="1.0" encoding="UTF-8"?><svg id="Layer_1" xmlns="http://www.w3.org/2000/svg" viewBox="0 0 682.93 715.38"><defs><style>.cls-1{stroke-width:3.21px;}.cls-1,.cls-2,.cls-3,.cls-4{stroke:#360b3d;stroke-miterlimit:10;}.cls-1,.cls-3,.cls-4{fill:none;}.cls-2{fill:#674a9e;}.cls-2,.cls-3{stroke-width:4px;}.cls-5{fill:#360b3d;}.cls-5,.cls-6,.cls-7{stroke-width:0px;}.cls-6{fill:#8973b4;}.cls-7{fill:#fff;}.cls-4{stroke-width:2.73px;}</style></defs><path class="cls-5" d="m145.19,369.34c-11.67,23.07-22.57,55.19-13.33,83.91,3.79,11.79,18.42,15.92,28.03,8.11l30.16-24.49c5.99-4.86,8.16-13.03,5.36-20.23l-17.78-45.78c-5.58-14.37-25.5-15.28-32.45-1.53Z"/><path class="cls-5" d="m134.45,278c20.01,50.02,55.6,150.08,44.65,204.93-3.41,17.09,9.79,32.93,27.21,32.3,26.37-.95,56.44-.65,76.56,3.84,35.96,8.03,61.19-116.15,68.63-157.92,1.49-8.39-1.1-16.99-6.98-23.17l-96.68-101.51c-6.27-6.58-15.45-9.54-24.39-7.85l-69.09,13.06c-16.59,3.14-26.17,20.63-19.9,36.3Z"/><path class="cls-2" d="m425.54,291.21c0-110.4-28.25-106.32-101.77-139.19-30.49-13.63-169.37,13.67-163.34,116.63-5.1-4.39-10.4-6.45-15.48-5.54-16.4,2.93-49.9,35.71-43.2,73.16,6.7,37.45,51.06,65.38,67.46,62.44,7.86-1.41,13.76-9.68,17.03-22.03,55.97,78.79,84.09,106.86,143.83,106.86,48.86,0,95.47-81.93,95.47-192.34Z"/><path class="cls-4" d="m156.07,285.17s-66.5,102.9-7.08,60.43c59.43-42.48-20.75-10.49-20.75-10.49"/><path class="cls-5" d="m346.92,276.61c1.36,10.97,16.88,17.97,34.67,15.63,17.79-2.34,31.11-13.13,29.75-24.1-1.36-10.97-17.17-15.86-34.96-13.53-17.79,2.34-30.82,11.02-29.46,21.99Z"/><path class="cls-7" d="m347.32,279.83c1.14,9.19,16.48,14.75,34.27,12.41,17.79-2.34,31.29-11.69,30.15-20.88-1.14-9.19-16.76-12.54-34.55-10.2-17.79,2.34-31.01,9.48-29.87,18.67Z"/><ellipse class="cls-5" cx="390.01" cy="272.18" rx="14.65" ry="15.08"/><path class="cls-5" d="m288.68,273.41c-1.36,10.97-16.88,17.97-34.67,15.63s-31.11-13.13-29.75-24.1,17.17-15.86,34.96-13.53c17.79,2.34,30.82,11.02,29.46,21.99Z"/><path class="cls-7" d="m288.28,276.63c-1.14,9.19-16.48,14.75-34.27,12.41s-31.29-11.69-30.15-20.88,16.76-12.54,34.55-10.2,31.01,9.48,29.87,18.67Z"/><ellipse class="cls-5" cx="268.69" cy="270.17" rx="14.65" ry="15.08"/><path class="cls-5" d="m279.74,146.7s-95.38,87.9-87.92,200.34c0,0-43.8-192.72,63.76-213.04,107.57-20.32,24.16,12.7,24.16,12.7Z"/><path class="cls-3" d="m319.71,285.17l21.48,43.5c3.06,6.19-.58,13.6-7.35,14.97l-20.22,4.07"/><path class="cls-5" d="m120.86,342.26l-11.62-68.58c-.19-1.12-.22-2.27-.1-3.4l28.09-113.66c.36-3.25,2-6.14,4.46-7.86l82.1-50.79c2.2-1.54,4.85-1.99,7.36-1.27l86.31,9.13c1.23.36,2.5.43,3.75.22l65.89,2.88c5.45-.91,10.44,3.59,10.89,9.82l40.5,129.89c.8,11.13-11.97,16.18-17.43,6.88l-31.26-55.82c-2.33-3.96-6.67-5.73-10.68-4.36l-34.67,27.88c-2.78.95-5.78.42-8.17-1.45l-55.28-32.26c-8.36-6.55-18.75,4.32-13.67,14.31h0c4.69,9.24-27.96,23.74-36.4,19.07l-24.79-30.87c-6.69-3.69-14.36,2.35-13.66,10.76l6.42,76.49c.99,11.77-12.99,16.55-17.89,6.13l-.95-2.01c-3.73-7.92-13.84-7.54-17.09.65l-24.05,60.61c-3.82,9.63-16.29,7.97-18.05-2.4Z"/><circle class="cls-6" cx="246.78" cy="347.71" r="29.71"/><circle class="cls-6" cx="379.12" cy="347.71" r="29.71"/><path class="cls-5" d="m286.77,250.63c0,2.34-14.65-15.58-32.73-15.58s-32.73,17.92-32.73,15.58,14.65-24.05,32.73-24.05,32.73,21.71,32.73,24.05Z"/><path class="cls-5" d="m412.26,249.13c0,2.34-14.65-15.58-32.73-15.58s-32.73,17.92-32.73,15.58,14.65-24.05,32.73-24.05,32.73,21.71,32.73,24.05Z"/><path class="cls-1" d="m316.51,419.75l1.06.26c6.24,1.52,13.12.46,17.97-2.76l.37-.24c12.08-8.03,6.04-19.69-10.34-19.87-.48,0-.95,0-1.43-.01-20.65-.16-27.2,17.87-7.63,22.63Z"/></svg>