<?xml version="1.0" encoding="UTF-8"?><svg id="Layer_1" xmlns="http://www.w3.org/2000/svg" viewBox="0 0 401.49 486.63"><defs><style>.cls-1{stroke-width:2.53px;}.cls-1,.cls-2,.cls-3{stroke:#303b19;stroke-miterlimit:10;}.cls-1,.cls-3{fill:none;}.cls-2{fill:#d4e6aa;stroke-width:4px;}.cls-3{stroke-width:3.8px;}.cls-4{fill:#360b3d;}.cls-4,.cls-5,.cls-6,.cls-7{stroke-width:0px;}.cls-5{fill:#bdce38;}.cls-6{fill:#303b19;}.cls-7{fill:#fff;}</style></defs><path class="cls-6" d="m110.81,205.97l8.67-53.11-73.78-15.43,5.48,126.24,5.55,1.35,1.65,19.09s35.12-19.24,41.76-12.82l5.81-35.59,13.52-20.6-8.67-9.13Z"/><path class="cls-2" d="m209.61,90.54c-85.96,0-120.19,63.17-117.58,167.41-7.59-6.34-31.04-11.18-38.32-9.33-19.53,4.96-40.58,54.5-19.05,90.06,23.86,39.41,36.55,60.8,56.08,55.85,8.6-2.18,14.88-10.53,18.33-22.63,28.21,62.01,70.4,96.82,132.96,110.28,88.5,19.04,89.97-75.77,106.44-207.88,14.85-119.15-48.34-183.77-138.87-183.77Z"/><path class="cls-1" d="m50.98,266.47s-1.2,133.35,27.23,76.04c28.43-57.31-23.92-11.64-23.92-11.64"/><path class="cls-6" d="m214.42,248.66c-.69,11.51-19.56,19.74-42.14,18.39-22.59-1.35-40.34-11.78-39.65-23.29s20.28-20.34,42.87-18.99,39.62,12.37,38.93,23.88Z"/><path class="cls-7" d="m214.42,248.66c0,12.47-19.56,19.74-42.14,18.39-22.59-1.35-40.47-9.56-39.71-22.23.58-9.64,19.93-14.53,42.52-13.18,22.59,1.35,39.34,7.35,39.34,17.01Z"/><path class="cls-6" d="m261.71,248.23c.99,11.53,20.08,20.17,42.64,19.31s40.04-10.91,39.05-22.44c-.99-11.53-20.82-20.78-43.38-19.92s-39.3,11.52-38.31,23.05Z"/><path class="cls-7" d="m261.71,248.23c.32,12.47,20.08,20.17,42.64,19.31s40.23-8.69,39.14-21.38c-.83-9.66-20.32-14.96-42.88-14.1-22.56.86-39.15,6.5-38.9,16.17Z"/><circle class="cls-6" cx="169.04" cy="245.92" r="16.78"/><circle class="cls-6" cx="292.36" cy="245.92" r="16.78"/><path class="cls-3" d="m237.82,262.7l25.99,44.87c2.65,4.57,1.37,10.41-2.94,13.46l-27.61,11.15"/><path class="cls-3" d="m194.03,388.22l24.72,13.91c18.96,10.67,41.34,8.97,58.94-4.48l25.51-19.49"/><path class="cls-6" d="m82.6,188.9l31.16-3.77c1.67,4.45,7.44,5.57,10.66,2.09l55.15-59.67c3.02-3.27,8.38-2.52,10.39,1.46l32.98,65.39c.14.28.3.55.48.81l13.28,18.82c3.27,4.64,10.52,3.02,11.5-2.57l14.25-80.68c1-5.65,8.36-7.22,11.57-2.47l41.47,61.27c.54.8,1.25,1.46,2.09,1.95l41.36,23.97c1.1.64,2.37.93,3.64.85l32.96-2.25c4.51-.31,7.28-5.07,5.32-9.14l-65.95-137.02c-.92-1.91-2.72-3.24-4.82-3.55l-52.93-7.82c-1.03-.15-2.01-.55-2.85-1.17L200.62,1.24c-1.94-1.42-4.51-1.64-6.65-.56l-73.31,36.92c-.78.39-1.63.62-2.5.67l-54.88,3.22c-2.34.14-4.41,1.54-5.41,3.67L22.73,120.28.74,162.22c-2.3,4.38,1.05,9.6,5.99,9.34l53.51-2.8c1.77-.09,3.43-.92,4.57-2.28l21.86,6.04c3.14-3.75-5.79,11.79-4.07,16.37Z"/><circle class="cls-5" cx="152.26" cy="332.17" r="37.95"/><ellipse class="cls-5" cx="309.14" cy="337.94" rx="26.98" ry="29.52"/><path class="cls-6" d="m194.07,204.41c0,3.57-12.14-3.53-27.12-3.53s-27.12,7.1-27.12,3.53,12.14-16.47,27.12-16.47,27.12,12.9,27.12,16.47Z"/><path class="cls-6" d="m326.7,204.41c0,3.57-12.14-3.53-27.12-3.53s-27.12,7.1-27.12,3.53,12.14-16.47,27.12-16.47,27.12,12.9,27.12,16.47Z"/><circle class="cls-4" cx="68.81" cy="308.42" r="63.99"/><polygon class="cls-4" points="11.24 296.84 158.64 378.59 162.01 369.16 13.34 290.04 11.24 296.84"/><ellipse class="cls-4" cx="164.7" cy="367.96" rx="32.44" ry="22.32"/><polyline class="cls-4" points="45.71 287.58 73.88 68 312.59 78.66 356.97 113.78 368.35 137.43 309.14 98 86.66 87.33 74.55 258.03"/></svg>