<?xml version="1.0" encoding="UTF-8"?><svg id="Layer_1" xmlns="http://www.w3.org/2000/svg" xmlns:xlink="http://www.w3.org/1999/xlink" viewBox="0 0 410 514.89"><defs><style>.cls-1{clip-path:url(#clippath);}.cls-2{fill:none;}.cls-2,.cls-3,.cls-4,.cls-5{stroke-width:0px;}.cls-3{fill:#8435d5;}.cls-4{fill:#272d12;}.cls-5{fill:#fff;}</style><clipPath id="clippath"><rect class="cls-2" width="410" height="514.89"/></clipPath></defs><g class="cls-1"><g id="Group_38"><path id="Path_562" class="cls-3" d="m335.1,508.53H74.9c-37.86,0-68.54-30.69-68.54-68.54h0V74.9C6.35,37.05,37.04,6.36,74.9,6.36h260.2c37.86,0,68.54,30.69,68.54,68.54h0s0,365.09,0,365.09c0,37.86-30.69,68.54-68.54,68.54"/><path id="Path_1072" class="cls-5" d="m358.26,10.14l42.49,41.92v68.45l-137.32-50.55,130.53,101.88-92.48,110.28-108.06,21.16-113.1-140.04L3.16,137.95l14.3-100.97,185.85,219.8,98.18-81.38L114.52,10.14h243.75Z"/><path id="Path_563" class="cls-5" d="m353.94,508.53H56.06c-27.45,0-49.7-22.25-49.7-49.7v-164.62c0-27.45,22.25-49.7,49.7-49.7h297.89c27.45,0,49.7,22.25,49.7,49.7v164.62c0,27.45-22.25,49.7-49.7,49.7"/><path id="Path_564" class="cls-4" d="m353.94,514.89H56.06C25.12,514.91.02,489.85,0,458.91c0-.03,0-.05,0-.08v-164.62c-.02-30.94,25.04-56.03,55.97-56.06h297.97c30.94-.02,56.03,25.04,56.06,55.97,0,.03,0,.06,0,.08v164.62c.02,30.94-25.04,56.03-55.97,56.06h-.08M56.06,250.87c-23.94,0-43.34,19.41-43.34,43.34v164.62c0,23.94,19.41,43.34,43.34,43.34h297.89c23.94,0,43.34-19.41,43.34-43.34v-164.62c0-23.94-19.41-43.34-43.34-43.34H56.06Z"/><path id="Path_565" class="cls-4" d="m335.1,514.89H74.9C33.56,514.92.03,481.44,0,440.1c0-.04,0-.07,0-.11V74.9C-.03,33.56,33.45.03,74.79,0c.04,0,.07,0,.11,0h260.2c41.33-.03,74.87,33.45,74.9,74.79,0,.04,0,.08,0,.11v365.09c.03,41.34-33.45,74.87-74.79,74.9h-.11M74.9,12.71c-34.31-.03-62.16,27.76-62.19,62.07,0,.04,0,.07,0,.11v365.09c-.03,34.31,27.76,62.16,62.07,62.19.04,0,.07,0,.11,0h260.2c34.31.03,62.16-27.76,62.19-62.07,0-.04,0-.08,0-.11V74.9c.03-34.31-27.76-62.15-62.08-62.18-.04,0-.07,0-.11,0H74.9Z"/></g></g></svg>